<?xml version="1.0" encoding="UTF-8" standalone="no"?>
<svg
   width="714"
   height="714"
   viewBox="0 0 714 714"
   version="1.1"
   xml:space="preserve"
   style="fill-rule:evenodd;clip-rule:evenodd;stroke-linejoin:round;stroke-miterlimit:2;"
   id="svg2"
   sodipodi:docname="breakingNews8.svg"
   inkscape:version="1.3.2 (091e20e, 2023-11-25, custom)"
   xmlns:inkscape="http://www.inkscape.org/namespaces/inkscape"
   xmlns:sodipodi="http://sodipodi.sourceforge.net/DTD/sodipodi-0.dtd"
   xmlns="http://www.w3.org/2000/svg"
   xmlns:svg="http://www.w3.org/2000/svg"><defs
   id="defs2" /><sodipodi:namedview
   id="namedview2"
   pagecolor="#ffffff"
   bordercolor="#000000"
   borderopacity="0.25"
   inkscape:showpageshadow="2"
   inkscape:pageopacity="0.0"
   inkscape:pagecheckerboard="0"
   inkscape:deskcolor="#d1d1d1"
   inkscape:zoom="1.1386555"
   inkscape:cx="357.87822"
   inkscape:cy="356.99999"
   inkscape:window-width="3440"
   inkscape:window-height="1369"
   inkscape:window-x="1912"
   inkscape:window-y="482"
   inkscape:window-maximized="1"
   inkscape:current-layer="path24" />
    <g
   id="g1"
   transform="scale(1.19)">
        <circle
   cx="300"
   cy="300"
   style="fill:#403a3d;fill-opacity:1"
   id="circle1"
   r="300" />
        
    </g>
    <g
   id="path24"
   style="fill:#000000"
   transform="scale(1.19)">
        <path
   d="m 308,493 c 27,0 85,-18 85,-71 0,-36 -26,-70 -118,-108 -47,30 -61,62 -61,89 0,62 49,90 93,90 m 72,-314 c 0,-36 -30,-73 -80,-73 -49,0 -73,33 -73,58 0,46 37,59 99,89 16,-8 53.98,-25.816 53.98,-72.816 z m -70,354 c -91,0 -162,-51 -162,-125 0,-73 86,-115 86,-115 -21,-13 -76,-45 -76,-106 0,-99 99,-124 150,-124 108,0 138,88 138,111 0,50 -45,85 -75,98 0,0 84,33 84,129 0,87 -83,132 -145,132"
   style="fill:#e8e0da;fill-rule:nonzero;fill-opacity:1"
   id="path2" />
    </g>
</svg>
