<?xml version="1.0" encoding="UTF-8" standalone="no"?>
<svg
   width="714"
   height="714"
   viewBox="0 0 714 714"
   version="1.1"
   xml:space="preserve"
   style="fill-rule:evenodd;clip-rule:evenodd;stroke-linejoin:round;stroke-miterlimit:2;"
   id="svg2"
   sodipodi:docname="breakingNewsr.svg"
   inkscape:version="1.3.2 (091e20e, 2023-11-25, custom)"
   xmlns:inkscape="http://www.inkscape.org/namespaces/inkscape"
   xmlns:sodipodi="http://sodipodi.sourceforge.net/DTD/sodipodi-0.dtd"
   xmlns="http://www.w3.org/2000/svg"
   xmlns:svg="http://www.w3.org/2000/svg"><defs
   id="defs2" /><sodipodi:namedview
   id="namedview2"
   pagecolor="#ffffff"
   bordercolor="#000000"
   borderopacity="0.25"
   inkscape:showpageshadow="2"
   inkscape:pageopacity="0.0"
   inkscape:pagecheckerboard="0"
   inkscape:deskcolor="#d1d1d1"
   inkscape:zoom="1.1386555"
   inkscape:cx="357.87822"
   inkscape:cy="356.99999"
   inkscape:window-width="3440"
   inkscape:window-height="1369"
   inkscape:window-x="1912"
   inkscape:window-y="482"
   inkscape:window-maximized="1"
   inkscape:current-layer="g1" />
    <g
   transform="matrix(1,0,0,1,57,57)"
   id="g1">
        <circle
   cx="300"
   cy="300"
   style="fill:#6b251c;fill-opacity:1;stroke-width:1.19"
   id="circle1"
   r="357" />
        
    </g>
    <g
   id="g2"
   transform="scale(1.19)">
        <path
   d="m 551.8,399.7 c -22.4,53.5 -67,80.2 -133.6,80.2 -12.2,0 -25.5,1.5 -39.7,4.6 -21.4,4.6 -32.1,11 -32.1,19.1 0,2.5 1.8,5.5 5.3,8.8 3.6,3.3 6.6,5 9.2,5 -12.7,0 -4.1,0.4 26,1.1 30.1,0.8 48.9,1.1 56.5,1.1 -44.3,26 -118.4,37.9 -222.3,35.9 C 187,555 157.7,540 133.3,510.4 c -24,-28 -35.9,-59.3 -35.9,-93.9 0,-36.6 12.3,-67.8 37.1,-93.6 24.7,-25.7 55.4,-38.6 92,-38.6 8.1,0 19,1.8 32.5,5.3 13.5,3.6 22.5,5.3 27.1,5.3 18.8,0 42.3,-7.8 70.3,-23.3 28,-15.5 41.3,-23.3 39.7,-23.3 -5.1,53.5 -22.9,89.4 -53.5,107.7 -21.9,12.7 -32.8,25.2 -32.8,37.4 0,7.6 4.6,13.8 13.7,18.3 7.1,3.6 15,5.4 23.7,5.4 13.2,0 26.2,-8.1 39,-24.4 12.7,-16.3 18.3,-31.1 16.8,-44.3 -1.5,-15.3 -0.5,-33.6 3.1,-55 1,-6.1 4.7,-13.6 11.1,-22.5 6.4,-8.9 12.1,-14.4 17.2,-16.4 0,4.6 -1.6,12.2 -5,22.9 -3.3,10.7 -5,18.6 -5,23.7 0,11.2 3,19.9 9.2,26 9.2,-3.6 17.3,-15 24.4,-34.4 6.1,-14.8 9.7,-29 10.7,-42.8 -21.4,-1 -41.9,-10.7 -61.5,-29 -19.6,-18.3 -29.4,-38.2 -29.4,-59.6 0,-3.6 0.5,-7.1 1.5,-10.7 3,4.6 7.6,11.7 13.7,21.4 8.7,12.7 15.3,19.1 19.9,19.1 6.1,0 9.2,-6.4 9.2,-19.1 0,-16.3 -4.3,-31.1 -13,-44.3 -9.7,-15.8 -22.2,-23.7 -37.4,-23.7 -7.1,0 -17.8,3.8 -32.1,11.5 -14.3,7.6 -27.3,11.5 -39,11.5 -3.6,0 -19.4,-4.6 -47.4,-13.8 49.4,-8.1 74.1,-15.5 74.1,-22.1 0,-17.3 -33.9,-29 -101.6,-35.1 -6.6,-0.5 -18.8,-1.5 -36.7,-3.1 2,-2.5 16.5,-5.3 43.5,-8.4 22.9,-2.5 39,-3.8 48.1,-3.8 121.2,0 198.1,58.8 230.7,176.5 5.6,-4.6 8.4,-12.4 8.4,-23.2 0,-13.9 -4.1,-31.5 -12.2,-52.7 -3.1,-8.2 -7.9,-20.6 -14.5,-37.2 41.7,53.2 62.6,103.6 62.6,151.2 0,25.1 -5.9,47.8 -17.6,68.3 -7.6,13.8 -21.9,31.5 -42.8,53 -20.9,21.5 -35.1,38.1 -42.8,49.9 28,-7.6 46.4,-13.5 55,-17.6 19.3,-8.6 36.9,-21.6 52.7,-39 0,6.6 -2.8,16.6 -8.4,29.8 M 218.8,99.5 c 0,9.2 -5.1,15 -15.3,17.6 l -19.9,3.1 c -7.1,3.6 -17.6,17.6 -31.3,42 -1.5,-7.6 -3.8,-18.3 -6.9,-32.1 -4.6,0.5 -12.2,4.6 -22.9,12.2 -4.6,3.6 -12,8.9 -22.2,16 3.1,-18.3 13.2,-36.9 30.6,-55.8 18.3,-20.9 36.2,-31.3 53.5,-31.3 22.9,0 34.4,9.4 34.4,28.3 m 132.9,70.3 c 0,8.7 -4.7,15.9 -14.1,21.8 -9.4,5.9 -18.7,8.8 -27.9,8.8 -12.2,0 -23.2,-6.9 -32.8,-20.6 -11.7,-16.8 -23.7,-27.7 -35.9,-32.9 2.5,-2.5 5.6,-3.8 9.2,-3.8 4.6,0 12.3,3.6 23.3,10.7 10.9,7.1 17.9,10.7 21,10.7 2.5,0 6.7,-3.6 12.6,-10.7 5.9,-7.1 12.3,-10.7 19.5,-10.7 16.8,0 25.2,8.9 25.2,26.7"
   style="fill:#e3deda;fill-opacity:1;fill-rule:nonzero"
   id="path2" />
    </g>
</svg>
