<?xml version="1.0" encoding="UTF-8" standalone="no"?>
<svg
   width="714"
   height="714"
   viewBox="0 0 714 714"
   version="1.1"
   xml:space="preserve"
   style="fill-rule:evenodd;clip-rule:evenodd;stroke-linejoin:round;stroke-miterlimit:2;"
   id="svg2"
   sodipodi:docname="breakingNewsx.svg"
   inkscape:version="1.3.2 (091e20e, 2023-11-25, custom)"
   xmlns:inkscape="http://www.inkscape.org/namespaces/inkscape"
   xmlns:sodipodi="http://sodipodi.sourceforge.net/DTD/sodipodi-0.dtd"
   xmlns="http://www.w3.org/2000/svg"
   xmlns:svg="http://www.w3.org/2000/svg"><defs
   id="defs2" /><sodipodi:namedview
   id="namedview2"
   pagecolor="#ffffff"
   bordercolor="#000000"
   borderopacity="0.25"
   inkscape:showpageshadow="2"
   inkscape:pageopacity="0.0"
   inkscape:pagecheckerboard="0"
   inkscape:deskcolor="#d1d1d1"
   inkscape:zoom="1.1386555"
   inkscape:cx="357.87822"
   inkscape:cy="356.99999"
   inkscape:window-width="3440"
   inkscape:window-height="1369"
   inkscape:window-x="1912"
   inkscape:window-y="482"
   inkscape:window-maximized="1"
   inkscape:current-layer="g1" />
    <g
   id="g1"
   transform="scale(1.19)">
        <circle
   cx="300"
   cy="300"
   r="300"
   style="fill:#403a3d;fill-opacity:1"
   id="circle1" />
        
    </g>
    <g
   id="path165"
   transform="matrix(7.14,0,0,7.14,5997.6,0)">
        <path
   d="m -783.359,80 v -3.297 c 4.703,-0.521 7.059,-1.887 7.059,-4.082 0,-1.582 -0.629,-3.164 -1.883,-4.746 l -13.008,-16.01 -10.273,12.111 c -2.57,2.973 -3.863,5.432 -3.863,7.354 0,2.976 2.354,4.771 7.07,5.387 V 80 h -25.051 v -3.287 c 3.172,-0.609 5.867,-1.752 8.102,-3.416 1.539,-1.223 3.637,-3.371 6.285,-6.438 l 15.449,-17.915 -17.867,-21.66 c -2.315,-2.797 -4.121,-4.633 -5.401,-5.51 -1.724,-1.225 -4.121,-2.012 -7.203,-2.361 V 16 h 29.539 v 3.285 c -4.453,0.877 -6.676,2.234 -6.676,4.074 0,1.23 0.594,2.586 1.793,4.072 l 11.816,14.322 9.508,-11.691 c 1.711,-2.104 2.57,-3.941 2.57,-5.52 0,-2.629 -2.105,-4.34 -6.301,-5.129 V 16 h 23.512 v 3.291 c -2.055,0.439 -3.473,0.834 -4.23,1.188 -2.57,1.229 -6.496,4.869 -11.797,10.92 -0.852,0.969 -4.453,5.393 -10.789,13.285 l 18.977,23.363 c 4.113,5.078 8.305,7.971 12.586,8.666 V 80 Z"
   style="fill:#e8e0da;fill-rule:nonzero;fill-opacity:1"
   id="path2" />
    </g>
</svg>
