<?xml version="1.0" encoding="UTF-8" standalone="no"?>
<svg
   width="714"
   height="714"
   viewBox="0 0 714 714"
   version="1.1"
   xml:space="preserve"
   style="fill-rule:evenodd;clip-rule:evenodd;stroke-linejoin:round;stroke-miterlimit:2;"
   id="svg3"
   sodipodi:docname="breakingNews5.svg"
   inkscape:version="1.3.2 (091e20e, 2023-11-25, custom)"
   xmlns:inkscape="http://www.inkscape.org/namespaces/inkscape"
   xmlns:sodipodi="http://sodipodi.sourceforge.net/DTD/sodipodi-0.dtd"
   xmlns="http://www.w3.org/2000/svg"
   xmlns:svg="http://www.w3.org/2000/svg"><defs
   id="defs3" /><sodipodi:namedview
   id="namedview3"
   pagecolor="#ffffff"
   bordercolor="#000000"
   borderopacity="0.25"
   inkscape:showpageshadow="2"
   inkscape:pageopacity="0.0"
   inkscape:pagecheckerboard="0"
   inkscape:deskcolor="#d1d1d1"
   inkscape:zoom="1.1386555"
   inkscape:cx="357.87822"
   inkscape:cy="356.99999"
   inkscape:window-width="3440"
   inkscape:window-height="1369"
   inkscape:window-x="1912"
   inkscape:window-y="482"
   inkscape:window-maximized="1"
   inkscape:current-layer="g1" />
    <g
   id="g1"
   transform="scale(1.19)">
        <circle
   cx="300"
   cy="300"
   r="300"
   style="fill:#403a3d;fill-opacity:1"
   id="circle1" />
    </g>
    
    <g
   transform="matrix(1.19,0,0,1.19,1.785,0)"
   id="g3"
   style="fill:#000000">
        <path
   d="M 449,355 C 448,481 338,532 251,532 201,532 151,514 151,514 l 15,-36 c 0,0 35,12 72,12 41,0 131,-30 131,-122 0,-51 -34,-103 -105,-103 -37,0 -70,22 -80,32 l -26,-5 52,-220 h 177 c 24,0 26,-3 28,-8 h 36 l -17,77 H 233 l -15,70 c 0,0 28,-13 68,-12 126,1 162,110 162,157 z"
   style="fill:#e8e0da;fill-rule:nonzero;fill-opacity:1"
   id="path2" />
    </g>
</svg>
