<?xml version="1.0" encoding="UTF-8" standalone="no"?>
<svg
   width="714"
   height="714"
   viewBox="0 0 714 714"
   version="1.1"
   xml:space="preserve"
   style="fill-rule:evenodd;clip-rule:evenodd;stroke-linejoin:round;stroke-miterlimit:2;"
   id="svg3"
   sodipodi:docname="breakingNews0.svg"
   inkscape:version="1.3.2 (091e20e, 2023-11-25, custom)"
   xmlns:inkscape="http://www.inkscape.org/namespaces/inkscape"
   xmlns:sodipodi="http://sodipodi.sourceforge.net/DTD/sodipodi-0.dtd"
   xmlns:xlink="http://www.w3.org/1999/xlink"
   xmlns="http://www.w3.org/2000/svg"
   xmlns:svg="http://www.w3.org/2000/svg"><defs
   id="defs3"><linearGradient
     id="swatch5"
     inkscape:swatch="solid"><stop
       style="stop-color:#e8e0da;stop-opacity:1;"
       offset="0"
       id="stop5" /></linearGradient><linearGradient
     id="swatch4"
     inkscape:swatch="solid"><stop
       style="stop-color:#403a3d;stop-opacity:1;"
       offset="0"
       id="stop4" /></linearGradient><linearGradient
     id="swatch3"
     inkscape:swatch="solid"><stop
       style="stop-color:#594c42;stop-opacity:1;"
       offset="0"
       id="stop3" /></linearGradient><linearGradient
     inkscape:collect="always"
     xlink:href="#swatch5"
     id="linearGradient5"
     x1="140.98985"
     y1="299"
     x2="462"
     y2="299"
     gradientUnits="userSpaceOnUse" /></defs><sodipodi:namedview
   id="namedview3"
   pagecolor="#ffffff"
   bordercolor="#000000"
   borderopacity="0.25"
   inkscape:showpageshadow="2"
   inkscape:pageopacity="0.0"
   inkscape:pagecheckerboard="0"
   inkscape:deskcolor="#d1d1d1"
   inkscape:zoom="1.16"
   inkscape:cx="506.46552"
   inkscape:cy="307.32759"
   inkscape:window-width="3440"
   inkscape:window-height="1369"
   inkscape:window-x="1912"
   inkscape:window-y="482"
   inkscape:window-maximized="1"
   inkscape:current-layer="g3" />
    <g
   id="g1"
   transform="scale(1.19)">
        <circle
   cx="300"
   cy="300"
   r="300"
   style="fill:url(#swatch4);fill-opacity:1"
   id="circle1" />
    </g>
    
    <g
   id="g3"
   transform="scale(1.19)">
        <path
   d="m 304,493 c 27,0 79,-14 79,-169 0,-166 -45,-217 -87,-217 -34,0 -76,26 -76,169 0,168 49,217 84,217 m 0,40 C 213,533 140,445 141,308 141,197 201,65 296,65 c 101,0 166,94 166,219 0,213 -123,249 -159,249"
   style="fill:url(#linearGradient5);fill-rule:nonzero"
   id="path2" />
    </g>
</svg>
