<?xml version="1.0" encoding="UTF-8" standalone="no"?>
<svg
   width="714"
   height="714"
   viewBox="0 0 714 714"
   version="1.1"
   xml:space="preserve"
   style="fill-rule:evenodd;clip-rule:evenodd;stroke-linejoin:round;stroke-miterlimit:2;"
   id="svg2"
   sodipodi:docname="breakingNewsb.svg"
   inkscape:version="1.3.2 (091e20e, 2023-11-25, custom)"
   xmlns:inkscape="http://www.inkscape.org/namespaces/inkscape"
   xmlns:sodipodi="http://sodipodi.sourceforge.net/DTD/sodipodi-0.dtd"
   xmlns="http://www.w3.org/2000/svg"
   xmlns:svg="http://www.w3.org/2000/svg"><defs
   id="defs2" /><sodipodi:namedview
   id="namedview2"
   pagecolor="#ffffff"
   bordercolor="#000000"
   borderopacity="0.25"
   inkscape:showpageshadow="2"
   inkscape:pageopacity="0.0"
   inkscape:pagecheckerboard="0"
   inkscape:deskcolor="#d1d1d1"
   inkscape:zoom="1.1386555"
   inkscape:cx="357.87822"
   inkscape:cy="356.99999"
   inkscape:window-width="3440"
   inkscape:window-height="1369"
   inkscape:window-x="1912"
   inkscape:window-y="482"
   inkscape:window-maximized="1"
   inkscape:current-layer="g1" />
    <g
   id="g1"
   transform="scale(1.19)">
        <circle
   cx="300"
   cy="300"
   r="300"
   style="fill:#332e30;fill-opacity:1"
   id="circle1" />
        
    </g>
    <g
   id="g2"
   transform="scale(1.19)">
        <path
   d="m 544.2,291.7 c 0,33.1 -12,55.7 -36.1,67.7 -7,3.5 -29.1,8.3 -66.2,14.3 -24.1,4 -36.1,13.3 -36.1,27.8 v 60.9 c 0,2.5 0.8,10.3 2.3,23.3 l 2.3,24.1 c 0,7.5 -1.8,19.8 -5.3,36.9 -9.5,2 -20.6,4.3 -33.1,6.8 -4,-15.1 -6,-25.3 -6,-30.9 0,-2.5 0.6,-6.3 1.9,-11.3 1.2,-5 1.9,-8.8 1.9,-11.3 0,-3.5 -3.1,-13.3 -9.4,-29.3 h -11.7 c -1.5,2.5 -2.1,5.8 -1.6,9.8 2,8.5 2.8,15.8 2.3,21.8 -8.5,6 -20.3,14.1 -35.4,24.1 -3.5,-1 -4.8,-1.5 -3.8,-1.5 v -53.4 c -1,-2.5 -3.5,-3.5 -7.5,-3 h -9 l -9,70.7 c -7,0.5 -15.6,0.5 -25.6,0 -3.5,-16.5 -9.8,-41.1 -18.8,-73.7 h -6 c -5.5,17.6 -8.5,27.1 -9,28.6 0,2 0.6,5.9 1.9,11.7 1.2,5.8 1.9,9.7 1.9,11.7 0,1.5 -0.5,5.3 -1.5,11.3 l -2.3,18.1 c -1,1 -2.3,1.5 -3.8,1.5 -15,0 -25.1,-3.8 -30.1,-11.3 -5,-7.5 -7,-18.1 -6,-31.6 l 6,-90.3 c 0,-1.5 0.5,-3.5 1.5,-6 1,-2.5 1.5,-4.3 1.5,-5.3 0,-4 -4.3,-12 -12.8,-24.1 -1.5,-0.5 -9.3,-2.3 -23.3,-5.3 C 149.8,372.5 133,369 107.9,364 73.3,357.5 56,329.7 56,280.5 56,207.3 86.1,146.3 146.3,97.7 c 2.5,13.5 6.8,31.6 12.8,54.2 4.5,1 14.3,3.3 29.3,6.8 3,1 18.3,6.5 45.9,16.6 -14.1,-8.5 -32.4,-22.3 -54.9,-41.4 -8.5,-10 -12.8,-26.8 -12.8,-50.4 0,-5.5 9.5,-12 28.6,-19.6 17,-7 29.9,-11 38.4,-12 27.1,-3.5 47.9,-5.3 62.5,-5.3 62.7,0 113.4,16.1 152,48.2 -12.5,14.6 -34.1,30.1 -64.7,46.6 12.1,0.5 29.6,-4.2 52.7,-14.3 23.1,-10 32.9,-15 29.3,-15 4,0 12.1,8 24.1,24.1 9,12 16.3,22.8 21.8,32.4 16,28.6 26.8,59.5 32.4,92.6 0,11.6 0.2,19.8 0.8,24.8 v 6 z M 256,305.2 c 0,-21.6 -9.4,-42 -28.2,-61.3 -18.8,-19.3 -39,-29 -60.6,-29 -19.1,0 -35.9,8.1 -50.4,24.2 -14.6,16.2 -21.8,34.1 -21.8,53.8 0,17.2 8.3,28.3 24.8,33.3 10.5,3 25.3,4.8 44.4,5.3 h 41.4 c 33.6,0.5 50.4,-8.3 50.4,-26.3 m 82,93.3 v -23.3 c -3.5,-6.5 -7,-13.3 -10.5,-20.3 -3,-10 -8.5,-24.1 -16.6,-42.1 l -8.3,88 c 0,7 -1.5,10.5 -4.5,10.5 -2,0 -3.5,-0.5 -4.5,-1.5 -3.5,-53.2 -5.3,-76.2 -5.3,-69.2 v -26.3 c -1,-1.5 -2.2,-2.3 -3.7,-2.3 -17.1,17.6 -25.6,45.9 -25.6,85 0,21.6 2,34.9 6,39.9 4,-1 8.5,-2.8 13.5,-5.3 2,-1 7.8,-1.5 17.3,-1.5 9.5,0 21.1,3 34.6,9 5,0 7.5,-13.5 7.5,-40.6 M 508,293.7 c 0,-20.2 -7.5,-38.2 -22.6,-54.1 -15.1,-15.9 -32.4,-23.8 -51.9,-23.8 -21.1,0 -40.8,9.6 -59.1,29 -18.3,19.3 -27.5,39.5 -27.5,60.6 0,17.6 8.5,26.3 25.6,26.3 H 459 c 32.6,-0.5 48.9,-13.1 48.9,-37.9"
   style="fill:#e6e0da;fill-opacity:1;fill-rule:nonzero"
   id="path2" />
    </g>
</svg>
