<?xml version="1.0" encoding="UTF-8" standalone="no"?>
<svg
   width="714"
   height="714"
   viewBox="0 0 714 714"
   version="1.1"
   xml:space="preserve"
   style="fill-rule:evenodd;clip-rule:evenodd;stroke-linejoin:round;stroke-miterlimit:2;"
   id="svg2"
   sodipodi:docname="breakingNews9.svg"
   inkscape:version="1.3.2 (091e20e, 2023-11-25, custom)"
   xmlns:inkscape="http://www.inkscape.org/namespaces/inkscape"
   xmlns:sodipodi="http://sodipodi.sourceforge.net/DTD/sodipodi-0.dtd"
   xmlns="http://www.w3.org/2000/svg"
   xmlns:svg="http://www.w3.org/2000/svg"><defs
   id="defs2" /><sodipodi:namedview
   id="namedview2"
   pagecolor="#ffffff"
   bordercolor="#000000"
   borderopacity="0.25"
   inkscape:showpageshadow="2"
   inkscape:pageopacity="0.0"
   inkscape:pagecheckerboard="0"
   inkscape:deskcolor="#d1d1d1"
   inkscape:zoom="1.1386555"
   inkscape:cx="357.87822"
   inkscape:cy="356.99999"
   inkscape:window-width="3440"
   inkscape:window-height="1369"
   inkscape:window-x="1912"
   inkscape:window-y="482"
   inkscape:window-maximized="1"
   inkscape:current-layer="g1" />
    <g
   id="g1"
   transform="scale(1.19)">
        <circle
   cx="300"
   cy="300"
   r="300"
   style="fill:#403a3d;fill-opacity:1"
   id="circle1" />
        
    </g>
    <g
   id="g2"
   transform="scale(1.19)">
        <path
   d="m 375,280 c 9,-92 -31,-174 -81,-174 -53,0 -67,65 -67,109 0,19 3,119 69,119 14,0 49,-4 79,-54 z M 189,493 c 155,1 176,-141 176,-141 0,0 -40,33 -90,33 -113,0 -156,-148 -111,-229 34,-61 71,-91 132,-91 113,0 160,118 160,203 0,37 -17,255 -268,265"
   style="fill:#e8e0da;fill-rule:nonzero;fill-opacity:1"
   id="path2" />
    </g>
</svg>
