<?xml version="1.0" encoding="UTF-8" standalone="no"?>
<!DOCTYPE svg PUBLIC "-//W3C//DTD SVG 1.1//EN" "http://www.w3.org/Graphics/SVG/1.1/DTD/svg11.dtd">
<svg width="1500" height="2100" viewBox="0 0 1500 2100" version="1.1" xmlns="http://www.w3.org/2000/svg" xmlns:xlink="http://www.w3.org/1999/xlink" xml:space="preserve" xmlns:serif="http://www.serif.com/" style="fill-rule:evenodd;clip-rule:evenodd;stroke-linejoin:round;stroke-miterlimit:2;">
    <rect id="Card" x="0" y="0" width="1500" height="2100" style="fill:none;"/>
    <g id="Card1" serif:id="Card">
        <path id="Artspace" d="M86,1837.71C68.822,1814.64 60.493,1784.83 60,1765L60,85C62.855,71.038 71.263,62.781 85,60L1415,60C1428.74,62.781 1437.14,71.038 1440,85L1440,1765C1439.53,1783.79 1432.03,1811.55 1416.62,1834.04C1416.9,1830.18 1417.02,1826.17 1417,1822L1417,1822C1417.12,1797.32 1412.13,1778.18 1400,1761.36L1400,1674.64C1412.13,1657.82 1417.13,1638.68 1417,1614L1417,1614C1417.12,1589.32 1412.13,1570.18 1400,1553.36L1400,1476.64C1412.13,1459.82 1417.13,1440.68 1417,1416L1417,1416C1417.12,1391.32 1412.13,1372.18 1400,1355.36L1400,1308.21C1411.64,1294.83 1421.59,1270.28 1422,1242C1421.59,1213.72 1411.64,1189.17 1400,1175.79L1400,227.213C1411.64,213.828 1421.59,189.276 1422,161C1421.52,127.948 1408,99.984 1394,89L106,89C91.996,99.984 78.481,127.948 78,161C78.412,189.278 88.364,213.833 100,227.213L100,1175.79C88.362,1189.17 78.412,1213.72 78,1242C78.412,1270.28 88.362,1294.83 100,1308.21L100,1541L86,1541L86,1684.72L100,1684.72L100,1755L86,1755L86,1837.71ZM1399.75,1761.02L1399.79,1761.08L1399.69,1760.93L1399.75,1761.02ZM1399.5,1760.68L1399.55,1760.74L1399.38,1760.51L1399.5,1760.68ZM1399.28,1760.37C1399.23,1760.31 1399.18,1760.25 1399.14,1760.19C1399.09,1760.12 1399.05,1760.06 1399,1760L1399.28,1760.37ZM1399.51,1675.32L1399.38,1675.49L1399.55,1675.26L1399.51,1675.32ZM1399.75,1674.98L1399.69,1675.07L1399.8,1674.92L1399.75,1674.98ZM1399.75,1553.02L1399.79,1553.08L1399.69,1552.93L1399.75,1553.02ZM1399.5,1552.68L1399.55,1552.74L1399.38,1552.51L1399.5,1552.68ZM1399.28,1552.37C1399.23,1552.31 1399.18,1552.25 1399.14,1552.19C1399.09,1552.12 1399.05,1552.06 1399,1552L1399.28,1552.37ZM1399.51,1477.32L1399.38,1477.49L1399.55,1477.26L1399.51,1477.32ZM1399.75,1476.98L1399.69,1477.07L1399.8,1476.92L1399.75,1476.98ZM1399.75,1355.02L1399.79,1355.08L1399.69,1354.93L1399.75,1355.02ZM1399.5,1354.68L1399.55,1354.74L1399.38,1354.51L1399.5,1354.68ZM1399.28,1354.37C1399.23,1354.31 1399.18,1354.25 1399.14,1354.19C1399.09,1354.12 1399.05,1354.06 1399,1354L1399.28,1354.37Z" style="fill:rgb(0,123,67);"/>
    </g>
</svg>
