<?xml version="1.0" encoding="UTF-8" standalone="no"?>
<!DOCTYPE svg PUBLIC "-//W3C//DTD SVG 1.1//EN" "http://www.w3.org/Graphics/SVG/1.1/DTD/svg11.dtd">
<svg width="100%" height="100%" viewBox="0 0 600 600" version="1.1" xmlns="http://www.w3.org/2000/svg" xmlns:xlink="http://www.w3.org/1999/xlink" xml:space="preserve" xmlns:serif="http://www.serif.com/" style="fill-rule:evenodd;clip-rule:evenodd;stroke-linejoin:round;stroke-miterlimit:2;">
    <g id="layer1" transform="matrix(1,0,0,1,55.1373,192.501)">
        <g id="circle437" transform="matrix(6,0,0,6,1834.86,-2082.91)">
            <circle cx="-265" cy="365.068" r="50" style="fill:rgb(134,144,133);"/>
        </g>
        <g transform="matrix(2.05735,0,0,2.05735,-118.214,-234.45)">
            <path d="M182.331,277.652C182.81,265.981 181.135,254.588 183.985,243.356C184.905,239.731 185.111,230.052 179.122,230.052C172.023,228.227 171.998,237.212 170.909,242.441C169.863,246.23 168.817,250.02 167.771,253.809C167.515,258.08 167.26,262.352 167.005,266.623C167.274,280.426 168.698,288.181 164.135,290.323C160.048,291.725 148.153,296.14 144.923,290.323C143.258,282.829 144.081,275.003 144.081,267.277C144.004,263.776 143.928,260.273 143.851,256.771C144.768,251.82 146.552,244.906 142.206,240.994C141.466,240.834 140.726,240.673 139.986,240.512C137.256,242.969 137.749,250.827 137.46,254.015C136.368,266.058 135.891,278.175 135.891,290.288C134.87,291.413 133.85,292.539 132.829,293.664C130.307,293.664 117.103,295.809 116.028,292.906C114.939,290.946 112.776,289.409 112.239,287.153C111.677,278.317 112.341,249.132 113.138,245.529C113.63,242.487 114.791,239.398 115.952,236.309C118.732,227.372 120.495,213.207 117.98,206.099C112.606,190.911 94.304,198.541 84.992,200.637C73.944,203.123 59.067,199.486 51.044,190.598C44.191,183.007 45.569,171.45 45.992,161.938C46.978,139.759 56.838,111.436 70.103,93.526C80.071,80.067 91.731,62.009 98.385,64.005C103.726,65.607 111.976,76.996 116.526,81.091C118.606,82.963 121.47,87.463 124.524,85.672C127.579,83.882 121.41,76.257 120.047,73.065C117.893,68.025 118.056,61.228 118.056,55.772C120.816,50.805 129.484,48.336 134.666,46.781C137.105,45.597 187.436,30.793 197.086,38.962C200.125,47.168 192.8,52.439 192.8,60.009C193.387,60.078 193.974,60.147 194.56,60.216C197.998,57.122 210.905,47.88 216.145,48.469C218.122,49.56 220.1,50.651 222.077,51.742C224.432,53.476 226.952,54.624 227.435,57.667C227.957,60.957 224.536,64.733 223.302,67.622C219.265,77.07 218.108,85.81 205.353,84.432C199.754,83.827 193.483,75.719 187.212,78.542C187.034,80.229 186.855,81.918 186.676,83.605C187.83,86.029 200.992,101.035 202.406,102.069C204.6,103.539 206.795,105.009 208.988,106.478C211.481,107.867 215.185,108.614 218.02,108.614C228.418,106.274 228.354,89.949 228.354,81.711C231.699,75.977 238.158,63.729 242.055,61.938C246.057,63.307 272.388,83.388 300.762,140.478C302.025,144.268 316.158,180.659 298.734,193.871C289.603,199.741 278.779,197.166 268.577,197.625C257.656,198.117 244.987,205.096 238.725,213.953C235.924,217.915 232.096,222.718 230.918,227.491C227.582,241.002 232.828,255.737 232.066,269.448C231.783,274.545 233.745,282.27 231.454,286.912C229.601,290.664 209.744,298.443 206.003,295.076C204.246,290.332 207.078,285.321 207.955,280.781C209.085,274.933 210.142,268.084 210.142,262.142C210.142,259.635 210.727,253.591 203.724,253.585C196.92,253.997 196.798,265.479 196.772,266.956C196.717,267.645 196.737,269.388 196.794,271.658L197.284,287.39C197.341,289.661 197.361,291.404 197.306,292.093C196.038,296.066 185.461,295.837 180.727,295.837L182.331,277.652ZM179.896,216.201C181.421,217.071 183.186,216.476 184.151,214.956C185.041,212.502 185.931,210.048 186.821,207.594C189.909,202.963 197.167,205.681 197.167,197.525C197.167,195.809 196.593,194.364 195.03,193.426C186.3,188.188 169.499,186.347 167.452,199.245C166.742,203.716 172.951,203.399 174.62,206.405C174.62,207.957 174.409,212.486 174.958,213.969C176.623,214.968 178,215.997 179.896,216.201ZM180.058,216.212L180.609,216.246C180.59,216.288 180.571,216.331 180.552,216.373L180.058,216.212L179.896,216.201L179.676,216.087L180.058,216.212ZM109.799,109.703C106.319,110.088 102.572,109.734 99.346,111.428C91.648,115.468 82.143,129.113 80.847,137.663C80.267,141.497 77.738,144.763 79.667,148.668C81.587,152.556 89.106,154.675 92.627,156.334C103.362,161.395 114.17,162.96 125.912,163.62C131.504,163.935 137.789,165.495 142.92,162.608C151.938,157.537 148.386,148.363 146.406,140.522C134.251,107.22 120.776,110.247 109.799,109.703ZM234.217,112.288C236.548,110.992 238.842,111.552 241.376,111.324C257.977,109.83 270.449,123.771 275.448,138.394C276.505,141.484 277.874,144.771 277.332,148.185C276.624,152.647 270.968,155.84 268.504,159.165C260.509,162.763 250.985,160.468 242.528,159.924C232.124,159.255 213.456,163.796 210.03,149.411C209.833,145.928 209.636,142.445 209.44,138.962C209.44,135.565 209.784,133.729 211.379,130.653C215.856,122.02 226.939,118.675 233.476,112.791C233.723,112.623 233.97,112.456 234.217,112.288Z"/>
        </g>
    </g>
</svg>
