<?xml version="1.0" encoding="UTF-8" standalone="no"?>
<!DOCTYPE svg PUBLIC "-//W3C//DTD SVG 1.1//EN" "http://www.w3.org/Graphics/SVG/1.1/DTD/svg11.dtd">
<svg width="100%" height="100%" viewBox="0 0 600 600" version="1.1" xmlns="http://www.w3.org/2000/svg" xmlns:xlink="http://www.w3.org/1999/xlink" xml:space="preserve" xmlns:serif="http://www.serif.com/" style="fill-rule:evenodd;clip-rule:evenodd;stroke-linejoin:round;stroke-miterlimit:2;">
    <g id="layer1" transform="matrix(1,0,0,1,55.1373,192.501)">
        <g id="circle437" transform="matrix(6,0,0,6,1834.86,-2082.91)">
            <circle cx="-265" cy="365.068" r="50" style="fill:rgb(194,227,176);"/>
        </g>
        <g transform="matrix(2.14459,0,0,2.14459,-89.388,-204.306)">
            <path d="M107.176,227.474C110.259,231.013 117.171,235.772 122.118,235.772C124.627,233.513 125.348,227.545 126.475,224.299C132.988,205.544 127.812,189.463 112.097,177.553C108.808,175.06 97.922,168.097 93.628,169.201C90.117,170.104 88.982,173.879 86.158,176.059C84.152,177.055 82.146,178.051 80.14,179.047C78.36,180.916 78.846,184.427 76.642,186.411C72.822,189.849 68.229,192.863 64.072,195.669C61.11,197.669 60.49,201.94 55.505,201.94C52.768,200.709 53.261,197.996 51.977,196.07C50.465,195.234 48.953,194.398 47.441,193.562L47.441,193.375C47.441,189.974 44.942,188.146 43.646,185.424C42.688,181.964 41.729,178.504 40.771,175.045C38.488,171.994 36.205,168.943 33.923,165.893C32.28,157.023 38.281,149.11 39.348,140.466C39.64,138.103 37.594,133.654 36.472,131.634C36.472,117.876 35.516,111.347 48.716,105.406C48.946,105.095 54.111,101.751 54.111,101.751C54.334,102.018 54.557,102.284 54.779,102.551C54.779,102.551 56.684,99.094 57.637,97.366C58.338,97.322 59.04,97.277 59.741,97.233C59.85,97.064 59.959,96.895 60.067,96.726C60.067,92.099 54.378,88.376 54.939,80.797C55.769,78.04 56.599,75.283 57.429,72.526C58.472,71.118 78.483,50.456 79.96,49.526C83.798,47.108 88.923,46.591 93.241,46.591C93.241,50.611 101.701,52.328 104.387,52.328C104.387,52.328 107.361,51.922 108.198,50.416C109.859,42.941 115.49,39.394 121.123,34.887C135.623,23.287 136.8,20.559 157.053,20.559C158.802,21.564 160.552,22.569 162.301,23.574C165.215,24.152 168.131,24.73 171.046,25.309C175.233,29.076 164.869,51.542 168.615,58.287L169.149,58.287C175.314,52.746 181.482,47.205 187.647,41.664C190.908,38.73 192.805,40.491 195.385,36.621C198.243,34.048 208.219,36.675 212.134,36.675C212.964,36.275 213.795,35.874 214.625,35.474C217.376,36.712 235.584,58.732 235.584,61.435C238.301,62.671 241.019,63.908 243.736,65.144C246.533,74.126 249.33,83.11 252.126,92.092C252.531,92.11 252.936,92.128 253.341,92.145C255.071,90.678 256.8,89.21 258.529,87.743C258.678,88.383 258.826,89.024 258.974,89.664C259.781,92.206 261.884,103.07 266.089,102.124C266.889,100.959 267.69,99.794 268.49,98.629C274.311,103.868 276.089,137.111 274.864,144.281C273.421,147.331 271.978,150.382 270.536,153.433C270.595,153.459 270.654,153.486 270.714,153.513C272.235,153.593 273.757,153.673 275.279,153.753C275.099,154.897 274.333,157.278 276.607,156.213C276.607,156.213 282.335,175.491 271.173,177.264C244.767,181.458 204.445,161.346 184.312,188.523C183.255,191.387 182.198,194.251 181.14,197.115C177.55,214.351 173.072,223.524 184.784,238.726C196.257,253.617 209.169,233.301 218.117,234.249C221.667,234.624 232.244,241.2 229.877,245.035C220.221,254.068 203.248,267.882 195.778,268.894C195.778,268.894 173.349,269.651 161.934,270.222C158.449,270.396 121.782,263.703 118.088,261.764C113.79,259.507 113.325,256.703 110.381,254.053C105.047,254.053 87.956,254.606 83.344,251.839C82.099,249.953 80.854,248.067 79.609,246.182C81.879,246.182 101.065,230.629 107.176,227.474ZM209.659,148.18C212.189,149.003 213.017,151.177 214.864,152.008C214.85,152.445 214.837,152.883 214.823,153.32C212.123,154.261 209.423,155.203 206.723,156.145C200.77,159.296 194.853,165.091 188.234,166.715C186.43,167.158 181.476,170.334 179.668,169.249C175.762,162.212 194.143,154.947 197.367,151.078C199.723,147.81 202.079,144.541 204.434,141.273C208.532,141.273 207.08,145.476 209.234,147.415C209.488,147.641 209.742,147.866 209.996,148.092C209.884,148.121 209.772,148.151 209.659,148.18ZM128.246,165.511C131.083,163.19 130.271,158.973 130.271,155.815C125.553,151.569 116.797,152.152 110.567,152.152C109.867,152.152 103.722,152.715 103.722,153.173C103.675,153.537 103.628,153.902 103.581,154.266C103.581,155.95 105.462,158.152 106.821,159.041C108.962,160.443 122.272,159.923 122.272,163.506C122.306,163.512 122.34,163.518 122.373,163.525C122.636,163.646 122.9,163.768 123.163,163.889C123.312,164.096 123.46,164.302 123.609,164.509C123.609,166.872 128.064,166.978 128.064,165.493C128.083,165.487 128.102,165.481 128.121,165.475C128.162,165.487 128.204,165.499 128.246,165.511ZM181.374,136.387C179.904,137.865 174.048,141.593 173.375,137.353C173.01,135.055 176.321,133.106 177.364,131.229C176.973,128.483 176.581,125.737 176.19,122.991C176.784,122.317 177.378,121.643 177.972,120.968C180.178,117.395 181.697,115.264 186.396,115.264C187.467,116.228 188.681,116.633 189.15,118.18C189.164,118.265 189.177,118.35 189.191,118.435C188.948,120.057 188.705,121.679 188.462,123.301C188.654,125.383 190.323,126.695 189.353,129.097C189.353,129.097 181.981,136.294 181.673,136.474C181.573,136.445 181.473,136.416 181.374,136.387ZM100.059,130.23C108.21,136.954 107.109,131.739 113.931,133.055C116.364,133.524 120.778,134.748 122.882,132.854C124.483,128.531 120.601,130.244 119.095,127.533C119.041,125.965 118.987,124.398 118.933,122.831C115.717,118.008 99.796,122.92 99.796,129.793C99.978,129.968 100.159,130.143 100.341,130.319C100.247,130.289 100.153,130.26 100.059,130.23ZM141.082,100.36C142.449,101.745 135.238,108.977 134.911,111.039C133.862,117.646 138.281,125.654 143.963,129.064C145.75,129.064 147.306,127.5 147.101,125.655C146.595,124.58 146.089,123.505 145.583,122.43C145.583,120.632 147.053,119.819 147.203,118.074C146.764,116.051 146.325,114.028 145.886,112.005L145.886,104.186C145.659,102.891 142.403,97.873 141.082,100.36ZM70.149,114.739C71.236,114.994 72.323,115.249 73.41,115.504C77.97,113.453 76.806,109.461 79.221,107.722C83.657,104.528 92.526,108.205 92.526,99.521C91.461,97.604 88.443,98.776 86.937,99.047C78.561,100.554 78.978,105.046 72.802,109.016C71.98,109.545 68.336,112.834 69.845,114.192C70.07,114.33 70.295,114.468 70.52,114.607C70.396,114.651 70.273,114.695 70.149,114.739ZM141.082,100.36L141.064,100.337C141.018,100.46 140.971,100.583 140.925,100.705C140.973,100.576 141.024,100.461 141.082,100.36ZM143.748,68.176C147.654,69.275 146.752,73.425 150.977,73.425C153.266,72.052 152.76,65.321 152.76,62.709C151.1,60.221 148.502,59.986 146.3,58.335C145.706,57.563 145.111,56.791 144.518,56.02C144.005,55.977 143.491,55.935 142.978,55.892C141.11,57.014 140.291,64.652 141.217,66.317C142.166,67.059 143.116,67.802 144.065,68.544C143.96,68.422 143.854,68.299 143.748,68.176Z"/>
        </g>
    </g>
</svg>
