<?xml version="1.0" encoding="UTF-8" standalone="no"?>
<!DOCTYPE svg PUBLIC "-//W3C//DTD SVG 1.1//EN" "http://www.w3.org/Graphics/SVG/1.1/DTD/svg11.dtd">
<svg width="100%" height="100%" viewBox="0 0 600 600" version="1.1" xmlns="http://www.w3.org/2000/svg" xmlns:xlink="http://www.w3.org/1999/xlink" xml:space="preserve" xmlns:serif="http://www.serif.com/" style="fill-rule:evenodd;clip-rule:evenodd;stroke-linejoin:round;stroke-miterlimit:2;">
    <g id="layer1" transform="matrix(1,0,0,1,55.1373,192.501)">
        <g id="circle437" transform="matrix(6,0,0,6,1834.86,-2082.91)">
            <circle cx="-265" cy="365.068" r="50" style="fill:rgb(234,163,117);"/>
        </g>
        <g transform="matrix(2.00207,0,0,2.00207,-71.2064,-190.813)">
            <path d="M185.203,112.3C185.203,112.3 174.299,132.822 162.135,139.563C149.97,146.303 141.836,148.402 131.202,146.903C120.568,145.403 80.871,168.156 80.871,213.487C80.871,253.417 132.787,277.327 147.979,277.973C163.171,278.62 183.078,267.16 186.776,266.439C190.474,265.718 200.125,267.612 205.65,265.915C211.175,264.218 238.388,243.747 253.884,219.778C239.978,221.913 226.175,236.517 223.476,229.215C220.776,221.913 260.114,205.404 262.797,198.807C261.58,206.911 262.48,211.682 259.651,216.108C266.359,210.832 285.508,192.137 271.71,141.136C270.145,148.826 269.266,157.492 262.273,167.35C261.024,164.721 261.623,163.509 259.651,162.107C257.679,160.705 255.638,164.109 254.408,162.107C253.179,160.105 259.531,143.867 272.758,122.786C278.081,114.199 273.894,98.617 270.137,89.756C266.38,80.895 239.243,38.946 217.709,27.367C223.776,40.09 241.87,60.565 242.874,71.931C237.878,67.994 226.324,61.355 224,58.823C221.676,56.292 224.83,51.785 221.903,48.338C218.976,44.891 210.62,44.609 207.747,39.949C204.875,35.29 196.143,23.811 182.058,21.599C167.972,19.388 133.922,14.735 67.24,46.765C74.364,47.291 80.629,47.12 80.347,53.056C80.064,58.993 70.477,62.991 63.57,63.542C56.662,64.093 33.341,72.209 40.501,141.66C42.861,135.802 46.221,126.414 47.841,125.407C49.462,124.401 50.414,129.606 51.511,133.272C58.763,116.9 52.794,91.261 57.278,91.329C61.763,91.397 61.931,104.883 62.521,129.077C66.051,115.518 68.349,103.324 70.385,96.047C70.124,93.837 69.434,83.795 76.152,81.368C85.341,75.412 91.334,68.176 93.454,67.736C95.573,67.297 97.733,74.123 97.124,76.649C98.984,75.53 102.241,65.632 101.318,53.056C101.807,50.243 106.383,41.102 112.328,44.144C118.273,47.185 118.22,49.372 121.765,54.629C125.31,59.886 133.846,65.525 133.824,68.785C133.801,72.045 123.289,69.385 119.668,68.785C121.644,70.308 129.259,76.486 128.056,78.222C126.854,79.958 110.231,78.746 110.231,78.746C110.231,78.746 121.803,84.302 121.241,86.086C120.679,87.87 110.231,85.562 110.231,85.562C110.231,85.562 115.583,96.119 127.008,96.047C138.433,95.976 160.781,88.773 164.756,88.708C168.731,88.642 178.395,98.911 178.388,100.242C178.38,101.573 188.506,95.393 159.513,74.552C155.608,70.115 151.454,67.494 159.513,59.348C167.573,51.202 172.085,49.893 179.96,53.056C187.836,56.22 204.204,68.046 196.213,76.125C188.222,84.203 173.917,66.535 172.096,63.018C170.275,59.5 179.35,105.273 218.233,96.572C228.362,105.24 240.043,117.777 226.097,137.466C219.485,138.434 222.61,131.461 220.854,126.456C219.099,121.451 209.518,111.088 207.747,111.252C205.976,111.415 222.468,157.789 218.757,174.166C215.046,190.542 207.017,202.508 202.505,204.05C194.59,206.753 196.089,203.16 190.446,201.428C184.803,199.696 184.493,203.52 181.533,201.952C178.573,200.385 174.168,195.782 173.669,190.943C172.784,180.121 196.652,165.529 197.262,153.719C197.871,141.908 192.696,130.361 189.397,128.029C186.099,125.697 185.01,114.616 185.203,112.3Z"/>
        </g>
    </g>
</svg>
