<?xml version="1.0" encoding="UTF-8" standalone="no"?><!DOCTYPE svg PUBLIC "-//W3C//DTD SVG 1.1//EN" "http://www.w3.org/Graphics/SVG/1.1/DTD/svg11.dtd"><svg width="100%" height="100%" viewBox="0 0 2015 2814" version="1.1" xmlns="http://www.w3.org/2000/svg" xmlns:xlink="http://www.w3.org/1999/xlink" xml:space="preserve" xmlns:serif="http://www.serif.com/" style="fill-rule:evenodd;clip-rule:evenodd;stroke-linejoin:round;stroke-miterlimit:2;"><path id="Shape_319_1" d="M133,2488.02c-34.096,-36.27 -53.066,-84.24 -53,-134.02l0,-2236c0,-20.846 17.154,-38 38,-38l1779,0c20.846,0 38,17.154 38,38l0,2236c0.068,49.781 -18.902,97.751 -53,134.02l0,-735.02c0,0 31,-26.63 31,-87.06c0.221,-31.93 -10.751,-62.95 -31,-87.64l0,-1276.3c0,0 31,-26.634 31,-87.061c0,-62.428 -39.37,-96.54 -39.37,-96.54l-1731.54,-0.399c-0,0 -39.1,22.981 -39.1,98.63c-0.001,60.67 30.008,85.37 30.008,85.37l-0,1275c-11.546,11.83 -30.009,38.51 -30.009,90.63c-0,60.67 30.009,85.37 30.009,85.37" style="fill:#00f;"/></svg>