<?xml version="1.0" encoding="UTF-8" standalone="no"?>
<!DOCTYPE svg PUBLIC "-//W3C//DTD SVG 1.1//EN" "http://www.w3.org/Graphics/SVG/1.1/DTD/svg11.dtd">
<svg width="100%" height="100%" viewBox="0 0 600 600" version="1.1" xmlns="http://www.w3.org/2000/svg" xmlns:xlink="http://www.w3.org/1999/xlink" xml:space="preserve" xmlns:serif="http://www.serif.com/" style="fill-rule:evenodd;clip-rule:evenodd;stroke-linejoin:round;stroke-miterlimit:2;">
    <circle id="circle5" cx="300" cy="300" r="300"/>
    <g id="layer1" transform="matrix(1,0,0,1,-484.863,155.359)">
        <g id="circle51" serif:id="circle5" transform="matrix(1,0,0,1,484.863,-155.359)">
            <path d="M305.566,599.949C303.705,599.983 301.854,600 300,600L299.997,600C301.853,600 303.704,599.983 305.566,599.949ZM305.808,599.945L305.824,599.944L305.808,599.945ZM87.906,512.087C33.606,457.787 0,382.787 0,300C0,134.425 134.425,0 300,0C382.771,0 457.757,33.593 512.046,87.865L87.906,512.087ZM600,299.999L600,300C600,306.308 599.805,312.572 599.42,318.783C599.805,312.566 600,306.306 600,299.999ZM147.422,272.9L207.641,272.9C231.626,272.9 238.771,271.369 246.936,244.832L267.349,244.321L248.977,307.602L103.534,307.602L103.024,290.251C212.234,183.592 214.275,167.772 215.296,151.952C217.847,117.25 192.841,106.023 179.573,106.023C166.304,106.023 144.36,114.698 122.927,158.586L104.045,150.421C132.623,70.3 180.594,73.872 195.903,74.383C233.667,75.403 258.163,111.126 257.142,141.235C256.122,182.061 238.26,188.185 147.422,272.9Z" style="fill:rgb(204,204,204);"/>
        </g>
        <g transform="matrix(1,0,0,1,484.863,-155.359)">
            <path d="M512.094,87.817C566.406,142.123 600,217.124 600,299.979C600,465.677 465.684,600 299.994,600C217.158,600 142.164,566.424 87.87,512.123L512.094,87.817ZM410.233,276.015C403.738,276.34 395.519,277.15 385.578,278.433C381.396,278.937 375.138,280.881 366.792,284.313C357.45,288.021 352.782,291.195 352.782,293.913C352.782,305.445 354.876,313.683 359.058,318.591C370.098,327.933 379.068,334.671 385.938,338.841C372.432,333.927 364.95,331.221 363.468,330.735C356.106,329.025 351.312,327.915 349.104,327.411C346.158,316.359 344.058,307.527 342.834,300.891C313.374,324.717 298.632,354.543 298.632,390.412C298.632,414.478 307.11,428.11 324.06,431.296C336.33,433.744 344.562,435.466 348.732,436.438C355.614,437.914 359.418,438.785 360.156,439.024C364.326,444.928 366.414,448.864 366.414,450.832C366.414,451.313 366.168,452.182 365.676,453.4C365.185,454.631 364.95,455.615 364.95,456.353L361.992,500.543C361.494,507.173 362.478,512.333 364.95,516.023C367.392,519.695 372.312,521.537 379.68,521.537C380.418,521.537 381.018,521.291 381.516,520.817L382.62,511.967C383.119,509.021 383.37,507.173 383.37,506.441C383.37,505.457 383.058,503.567 382.452,500.735C381.834,497.903 381.522,496.007 381.522,495.029C381.774,494.291 383.244,489.623 385.944,481.025L388.902,481.025C393.318,497.003 396.39,509.021 398.112,517.127C403.02,517.373 407.19,517.373 410.628,517.127L415.05,482.501L419.472,482.501C421.446,482.267 422.67,482.759 423.156,483.977L423.156,510.131C422.67,510.131 423.27,510.377 425.004,510.869C432.372,505.955 438.132,502.025 442.314,499.079C442.554,496.127 442.188,492.575 441.204,488.393C440.964,486.437 441.21,484.841 441.966,483.611L447.684,483.611C450.738,491.477 452.256,496.271 452.256,497.975C452.256,499.211 451.944,501.059 451.332,503.507C450.716,505.961 450.414,507.815 450.414,509.033C450.414,511.739 451.392,516.773 453.36,524.153C459.498,522.911 464.904,521.801 469.566,520.823C471.288,512.477 472.152,506.453 472.152,502.775L471.042,490.979C470.318,484.601 469.938,480.803 469.938,479.549L469.938,449.71C469.938,442.6 475.836,438.064 487.614,436.084C505.794,433.156 516.594,430.81 520.038,429.088C531.828,423.202 537.72,412.144 537.72,395.938L537.722,395.938L537.722,392.998C537.476,390.55 537.354,386.5 537.354,380.848C534.648,364.654 529.368,349.533 521.508,335.535C518.802,330.873 515.238,325.587 510.828,319.695C505.021,311.954 501.114,308.019 499.124,307.908L499.376,308.052C499.278,308.65 494.378,311.071 484.674,315.273C473.376,320.199 464.778,322.527 458.886,322.281C473.862,314.163 484.428,306.573 490.56,299.445C471.654,283.719 446.844,275.853 416.154,275.853L410.233,276.015ZM436.782,448.258L436.782,436.852C435.066,433.654 433.344,430.324 431.634,426.892C430.158,421.99 427.452,415.114 423.528,406.258L419.472,449.362C419.472,452.818 418.74,454.529 417.258,454.529C416.28,454.529 415.536,454.289 415.05,453.79C413.328,427.762 412.476,416.458 412.476,419.914L412.476,407.026C411.978,406.27 411.366,405.898 410.628,405.898C402.282,414.52 398.112,428.386 398.112,447.526C398.112,458.093 399.09,464.597 401.052,467.069C403.026,466.571 405.222,465.707 407.694,464.483C408.672,463.985 411.492,463.745 416.16,463.745C420.81,463.745 426.48,465.215 433.098,468.155C435.558,468.138 436.782,461.525 436.782,448.258ZM396.624,402.586C396.624,392.02 392.022,382.012 382.818,372.55C373.602,363.094 363.708,358.372 353.154,358.372C343.824,358.372 335.604,362.332 328.476,370.24C321.354,378.154 317.796,386.932 317.796,396.58C317.796,404.98 321.846,410.434 329.952,412.894C335.112,414.382 342.348,415.246 351.678,415.498L371.94,415.498C388.398,415.708 396.624,411.406 396.624,402.586ZM520.038,396.922C520.038,387.046 516.354,378.208 508.986,370.414C501.618,362.632 493.146,358.744 483.582,358.744C473.262,358.744 463.614,363.466 454.656,372.91C445.686,382.366 441.204,392.254 441.204,402.58C441.204,411.172 445.386,415.462 453.732,415.462L496.086,415.462C512.058,415.222 520.038,409.054 520.038,396.922Z" style="fill:rgb(165,151,147);"/>
        </g>
    </g>
</svg>
