<?xml version="1.0" encoding="UTF-8" standalone="no"?>
<!DOCTYPE svg PUBLIC "-//W3C//DTD SVG 1.1//EN" "http://www.w3.org/Graphics/SVG/1.1/DTD/svg11.dtd">
<svg width="100%" height="100%" viewBox="0 0 1500 2100" version="1.1" xmlns="http://www.w3.org/2000/svg" xmlns:xlink="http://www.w3.org/1999/xlink" xml:space="preserve" xmlns:serif="http://www.serif.com/" style="fill-rule:evenodd;clip-rule:evenodd;stroke-linejoin:round;stroke-miterlimit:2;">
    <rect id="Card" x="0" y="0" width="1500" height="2100" style="fill:none;"/>
    <g id="Card1" serif:id="Card">
        <path id="Godzilla" d="M201.736,301.353C198.451,284.4 190.99,271.774 180.3,260.251L100.58,260.251C97.417,260.117 95.597,258.417 95.396,254.828C88.594,226.227 74.182,207.899 47.634,205.955C43.138,205.49 41.15,203.074 41.097,199.153C38.678,109.127 45.257,99.39 83,57C113.651,81.473 163.964,92.965 238,91C244.426,75.013 253.338,62.242 274,51C361.777,104.035 474.652,102.948 604,54L618,71C685.159,37.634 741.759,40.268 750,40L750.422,40.011C760.01,40.194 815.888,38.154 882,71L896,54C1025.35,102.948 1138.22,104.035 1226,51C1246.66,62.242 1255.57,75.013 1262,91C1336.04,92.965 1386.35,81.473 1417,57C1454.74,99.39 1461.32,109.127 1458.9,199.153C1458.85,203.074 1456.86,205.49 1452.37,205.955C1425.82,207.899 1411.41,226.227 1404.6,254.828C1404.4,258.417 1402.58,260.117 1399.42,260.251L1319.7,260.251C1309.01,271.774 1301.55,284.4 1298.26,301.353L201.736,301.353ZM1290.15,291.512C1296.36,270.848 1308.58,250.61 1330,233L170,233C191.591,250.749 203.835,271.166 210,292L1290,292L1290.15,291.512ZM140,104C139.762,104 139.523,103.981 139.287,103.998C121.054,105.308 104.776,114.445 91.633,125.042C74.497,138.859 62.648,155.246 58.779,160.988C62.564,166.577 73.921,182.311 90.372,195.913C103.724,206.953 120.458,216.65 139.287,218.002C139.523,218.019 139.762,218 140,218L1388,218C1401.52,199 1406.29,180 1406.29,161C1406.29,142 1401.52,123 1388,104C1388.75,105.054 1386.71,104 1388,104L140,104Z" style="fill:rgb(239,56,39);"/>
    </g>
</svg>
