<?xml version="1.0" encoding="UTF-8" standalone="no"?>
<!DOCTYPE svg PUBLIC "-//W3C//DTD SVG 1.1//EN" "http://www.w3.org/Graphics/SVG/1.1/DTD/svg11.dtd">
<svg width="100%" height="100%" viewBox="0 0 1500 2100" version="1.1" xmlns="http://www.w3.org/2000/svg" xmlns:xlink="http://www.w3.org/1999/xlink" xml:space="preserve" xmlns:serif="http://www.serif.com/" style="fill-rule:evenodd;clip-rule:evenodd;stroke-linejoin:round;stroke-miterlimit:2;">
    <rect id="Card" x="0" y="0" width="1500" height="2100" style="fill:none;"/>
    <g id="Card1" serif:id="Card">
        <path id="Classic" d="M750,40C741.759,40.268 685.159,37.634 618,71L604,54C474.652,102.948 361.777,104.035 274,51C253.338,62.242 244.426,75.013 238,91C163.964,92.965 113.651,81.473 83,57C38.331,107.671 37.26,138.835 52,158.47C59.699,168.727 51.949,183.298 41,183C40.598,208.211 48.743,229.856 68,251C77.57,231.833 90.94,232.897 111,233L1389,233C1409.06,232.897 1422.43,231.833 1432,251C1451.26,229.856 1459.4,208.211 1459,183C1448.05,183.298 1440.3,168.727 1448,158.47C1462.74,138.835 1461.67,107.671 1417,57C1386.35,81.473 1336.04,92.965 1262,91C1255.57,75.013 1246.66,62.242 1226,51C1138.22,104.035 1025.35,102.948 896,54L882,71C814.841,37.634 758.241,40.268 750,40ZM140,104C139.762,104 139.523,103.981 139.287,103.998C121.054,105.308 104.776,114.445 91.633,125.042C74.497,138.859 62.648,155.246 58.779,160.988C62.564,166.577 73.921,182.311 90.372,195.913C103.724,206.953 120.458,216.65 139.287,218.002C139.523,218.019 139.762,218 140,218L1388,218C1401.52,199 1406.29,180 1406.29,161C1406.29,142 1401.52,123 1388,104C1388.75,105.054 1386.71,104 1388,104L140,104Z" style="fill:rgb(0,255,26);"/>
    </g>
</svg>
