<?xml version="1.0" encoding="UTF-8" standalone="no"?>
<!DOCTYPE svg PUBLIC "-//W3C//DTD SVG 1.1//EN" "http://www.w3.org/Graphics/SVG/1.1/DTD/svg11.dtd">
<svg width="100%" height="100%" viewBox="0 0 1500 2100" version="1.1" xmlns="http://www.w3.org/2000/svg" xmlns:xlink="http://www.w3.org/1999/xlink" xml:space="preserve" xmlns:serif="http://www.serif.com/" style="fill-rule:evenodd;clip-rule:evenodd;stroke-linejoin:round;stroke-miterlimit:2;">
    <path d="M1504,0C1504,-2.209 1502.21,-4 1500,-4L0,-4C-2.209,-4 -4,-2.209 -4,0L-4,2100C-4,2102.21 -2.209,2104 -0,2104L1500,2104C1502.21,2104 1504,2102.21 1504,2100L1504,0ZM140,104C139.762,104 139.523,103.981 139.287,103.998C121.054,105.308 104.776,114.445 91.633,125.042C74.497,138.859 62.648,155.246 58.779,160.988C62.564,166.577 73.921,182.311 90.372,195.913C103.724,206.953 120.458,216.65 139.287,218.002C139.523,218.019 139.762,218 140,218L1388,218C1401.52,199 1406.29,180 1406.29,161C1406.29,142 1401.52,123 1388,104C1388.75,105.054 1386.71,104 1388,104L140,104Z"/>
</svg>
