<?xml version="1.0" encoding="UTF-8" standalone="no"?>
<svg xmlns="http://www.w3.org/2000/svg" version="1.1" viewBox="0 0 600 662.375" width="600" height="662.375">
	<defs>
		<linearGradient id="gradient-body" x1="0" y1="0" x2="0" y2="0.55" spreadMethod="reflect">
			<stop offset="0" stop-color="#596771" />
			<stop offset="0.9" stop-color="#c3e2ee" />
		</linearGradient>
	</defs>
	<path id="outline" fill="black" d="M 551,17.7 500,89 405,126 418,27.1 c 3.73,-27.9 -24.2,-37.6 -39.6,-12.7 l -56.4,91.2 c 0,0 -27.7,-1.04 -41.5,-0.764 -21.8,0.438 -43.7,1.11 -65.4,3.83 -32.4,3.95 -64.5,11.5 -94.6,24.2 -4.21,1.75 -8.39,3.57 -12.5,5.57 L 104,126 0,126 34.4,310 54.8,573 210,638 208,652 339,652 536,547 600,26.1 C 603,2.3 573,-14.2 551,17.7 Z" />
	<path id="body" fill="url(#gradient-body)" d="m 277,565 -0.438,63.5 h -43.9 l 11.7,-63.5 z M 542,346 351,618 514,534 Z m -311,46.1 -46.3,37.5 1.26,170 28,14.2 12.5,-73.4 50.5,0.609 0.609,-26.1 -47.1,0.171 0.495,-123 z M 60.8,334 77.3,556 158,589 158,426 110,399 98.7,363 60.8,334 Z m 174,-68.2 19.3,97.5 -0.0571,126 23.4,-0.666 0.114,-208 -42.8,-14.5 z M 69.3,219 182,268 188,288 73.7,238 69.3,219 Z m -41.1,-69.8 26.5,142 81.5,60.4 89.9,0.266 -18.8,-96.6 -98.9,-41 -21.5,-65 -58.8,-0.0571 z M 77.6,266 191,315 195,334 81.9,285 Z M 397,30 335,130 l -26.4,-1.26 -0.0571,31.9 22.1,-1.6 -21.6,74 -1.26,81 48.6,-41.9 L 397,30 Z M 276,129 c -54.5,0.438 -110,7.93 -160,32 l 8.81,26.4 151,62.3 0.0571,-31.8 -58.3,-45.8 58.2,-12.2 z" />
	<path id="mask" fill="#c3e2ee" d="M 477,292 360,431 330,357 477,292 Z m 99.5,-269 -61,84.8 -110,42.6 -11.4,62.8 105,-48.6 -1.2,15.9 -103,48.1 -9.74,40.4 105,-49.1 0.171,15.2 -105,48.7 -76.7,64.2 -0.0571,279 233,-334 z" />
</svg>
