<?xml version="1.0" encoding="UTF-8" standalone="no"?>
<svg xmlns="http://www.w3.org/2000/svg" version="1.1" width="600" height="650.7738">
	<path id="outline" fill="white" d="m 0,159 57.78,56.41 V 408.1 L 299.9,650.8 542.2,408.4 V 215.4 L 600,159 441.4,0 h -97.93 c -2.321,7.158 -3.897,14.72 -7.972,21.16 C 327.8,33.59 313.3,41.58 298.6,40.98 284.7,40.54 271.3,32.57 264.1,20.6 261.2,15.91 259.7,10.55 258.1,5.288 257.6,3.525 257,1.763 256.5,0 h -97.9 z" />
	<path id="body" fill="black" d="M 164.1,13.45 163.4,14.24 19.12,158.9 71.23,209.8 V 402.6 L 299.8,631.3 528.8,402.8 V 209.8 L 580.9,158.9 435.9,13.45 H 353.4 C 346.8,37.56 325,54.34 300,54.5 275,54.34 253.2,37.56 246.6,13.45 Z" />
	<path id="gear" fill="white" d="m 334.1,453.1 4.207,-24.9 11.4,-6.102 11.4,-6.102 18.73,15.76 18.73,15.76 21.46,-23.42 21.46,-23.42 -12.76,-17.92 -12.76,-17.92 5.708,-16.34 5.708,-16.34 20.06,-1.945 20.06,-1.945 v -33.46 -33.46 l -20.97,-3.935 -20.97,-3.935 -6.354,-13.94 -6.354,-13.94 14.22,-18.17 14.22,-18.17 -20.27,-24.14 -20.27,-24.14 -19.36,13.79 -19.36,13.79 -12.41,-3.938 -12.41,-3.938 -3.903,-24.41 -3.903,-24.41 h -29.69 -29.69 l -4.193,24.82 -4.193,24.82 -10.31,5.768 -10.31,5.768 -20.96,-15.99 -20.96,-15.99 -20.4,24.18 -20.4,24.18 14.63,19.29 14.63,19.29 -3.359,12.84 -3.359,12.84 -24.21,4.091 -24.21,4.091 v 32.79 32.79 l 24.09,3.852 24.09,3.852 3.486,13.33 3.486,13.33 -15.03,19.71 -15.03,19.71 23.14,22.42 23.14,22.42 18.22,-14.68 18.22,-14.68 11.22,6.003 11.22,6.003 3.938,24.63 3.938,24.63 h 29.69 29.69 z" />
	<path id="boss" fill="black" fill-rule="evenodd" d="M 323.7,293.2 A 23.66,23.66 0 0 1 300,316.8 23.66,23.66 0 0 1 276.3,293.2 23.66,23.66 0 0 1 300,269.5 a 23.66,23.66 0 0 1 23.66,23.66 z m 40.56,0 A 64.23,64.23 0 0 1 300,357.4 64.23,64.23 0 0 1 235.8,293.2 64.23,64.23 0 0 1 300,228.9 a 64.23,64.23 0 0 1 64.23,64.23 z m 24.79,0 A 89.02,89.02 0 0 1 300,382.2 89.02,89.02 0 0 1 211,293.2 89.02,89.02 0 0 1 300,204.2 a 89.02,89.02 0 0 1 89.02,89.02 z" />
</svg> 