<?xml version="1.0" encoding="UTF-8" standalone="no"?>
<svg xmlns="http://www.w3.org/2000/svg" version="1.1" width="600" height="650.7738">
	<defs>
		<linearGradient id="gradient-body" x1="0" x2="0.5" spreadMethod="reflect">
			<stop stop-color="#807241" offset="0" />
			<stop stop-color="#e1c47e" offset="1" />
		</linearGradient>
	</defs>
	<path id="outline" fill="white" d="m 0,159 57.78,56.41 V 408.1 L 299.9,650.8 542.2,408.4 V 215.4 L 600,159 441.4,0 h -97.93 c -2.321,7.158 -3.897,14.72 -7.972,21.16 C 327.8,33.59 313.3,41.58 298.6,40.98 284.7,40.54 271.3,32.57 264.1,20.6 261.2,15.91 259.7,10.55 258.1,5.288 257.6,3.525 257,1.763 256.5,0 h -97.9 z" />
	<path id="edge" fill="#807241" d="M 164.1,13.45 163.4,14.24 19.12,158.9 71.23,209.8 V 402.6 L 299.8,631.3 528.8,402.8 V 209.8 L 580.9,158.9 435.9,13.45 H 353.4 C 346.8,37.56 325,54.34 300,54.5 275,54.34 253.2,37.56 246.6,13.45 Z" />
	<path id="body" fill="url(#gradient-body)" d="m 45.88,158.7 c 14.72,14.38 29.45,28.76 44.17,43.14 0,64.31 0,128.6 0,192.9 69.91,69.98 139.8,140 209.7,209.9 70.06,-69.9 140.1,-139.8 210.2,-209.7 0,-64.39 0,-128.8 0,-193.2 14.72,-14.38 29.44,-28.76 44.17,-43.14 C 512.1,116.6 470.1,74.41 428,32.27 c -20.58,0 -41.17,0 -61.75,0 -9.76,19.45 -28.39,34.27 -49.64,39.1 -18.35,4.329 -38.33,1.211 -54.46,-8.571 -12.1,-7.234 -22.15,-17.92 -28.47,-30.53 -20.59,0 -41.17,0 -61.76,0 C 129.9,74.41 87.91,116.6 45.88,158.7 Z" />
	<path id="gear-edge" fill="#807241" d="m 256.1,98.01 c -3.011,17.74 -6.004,35.48 -9.007,53.22 -1.546,0.864 -3.092,1.728 -4.638,2.592 -15.23,-11.62 -30.47,-23.24 -45.7,-34.86 -19.68,23.32 -39.35,46.65 -59.03,69.97 10.77,14.21 21.54,28.41 32.31,42.62 -0.6977,2.67 -1.395,5.34 -2.093,8.009 -17.2,2.912 -34.39,5.82 -51.59,8.734 0,30.99 0,61.98 0,92.97 17.12,2.739 34.24,5.476 51.36,8.214 0.7747,2.957 1.549,5.914 2.324,8.871 -11.33,14.85 -22.66,29.7 -33.99,44.55 22.28,21.58 44.55,43.16 66.83,64.73 13.07,-10.53 26.14,-21.07 39.22,-31.6 1.987,1.063 3.974,2.125 5.961,3.188 2.93,18.31 5.859,36.63 8.789,54.94 28.93,0 57.85,0 86.78,0 3.119,-18.48 6.24,-36.96 9.359,-55.45 2.064,-1.106 4.128,-2.211 6.192,-3.317 13.65,11.48 27.29,22.96 40.94,34.44 20.73,-22.62 41.46,-45.24 62.19,-67.85 -9.417,-13.22 -18.83,-26.45 -28.25,-39.67 1.752,-5.018 3.503,-10.04 5.255,-15.05 14.8,-1.432 29.61,-2.869 44.41,-4.299 0,-31.65 0,-63.31 0,-94.96 -15.62,-2.925 -31.24,-5.855 -46.86,-8.781 -1.725,-3.788 -3.451,-7.575 -5.176,-11.36 10.15,-12.97 20.3,-25.94 30.45,-38.91 -19.51,-23.24 -39.02,-46.48 -58.53,-69.72 -14.76,10.52 -29.53,21.03 -44.29,31.55 -2.555,-0.8097 -5.11,-1.619 -7.665,-2.429 -2.802,-17.53 -5.603,-35.05 -8.406,-52.58 -28.92,0 -57.83,0 -86.75,0 -0.1269,0.7458 -0.2538,1.492 -0.3808,2.237 z" />
	<path id="gear" fill="white" d="m 334.1,453.1 4.207,-24.9 11.4,-6.102 11.4,-6.102 18.73,15.76 18.73,15.76 21.46,-23.42 21.46,-23.42 -12.76,-17.92 -12.76,-17.92 5.708,-16.34 5.708,-16.34 20.06,-1.945 20.06,-1.945 v -33.46 -33.46 l -20.97,-3.935 -20.97,-3.935 -6.354,-13.94 -6.354,-13.94 14.22,-18.17 14.22,-18.17 -20.27,-24.14 -20.27,-24.14 -19.36,13.79 -19.36,13.79 -12.41,-3.938 -12.41,-3.938 -3.903,-24.41 -3.903,-24.41 h -29.69 -29.69 l -4.193,24.82 -4.193,24.82 -10.31,5.768 -10.31,5.768 -20.96,-15.99 -20.96,-15.99 -20.4,24.18 -20.4,24.18 14.63,19.29 14.63,19.29 -3.359,12.84 -3.359,12.84 -24.21,4.091 -24.21,4.091 v 32.79 32.79 l 24.09,3.852 24.09,3.852 3.486,13.33 3.486,13.33 -15.03,19.71 -15.03,19.71 23.14,22.42 23.14,22.42 18.22,-14.68 18.22,-14.68 11.22,6.003 11.22,6.003 3.938,24.63 3.938,24.63 h 29.69 29.69 z" />
	<path id="boss" fill="#807241" fill-rule="evenodd" d="M 323.7,293.2 A 23.66,23.66 0 0 1 300,316.8 23.66,23.66 0 0 1 276.3,293.2 23.66,23.66 0 0 1 300,269.5 a 23.66,23.66 0 0 1 23.66,23.66 z m 40.56,0 A 64.23,64.23 0 0 1 300,357.4 64.23,64.23 0 0 1 235.8,293.2 64.23,64.23 0 0 1 300,228.9 a 64.23,64.23 0 0 1 64.23,64.23 z m 24.79,0 A 89.02,89.02 0 0 1 300,382.2 89.02,89.02 0 0 1 211,293.2 89.02,89.02 0 0 1 300,204.2 a 89.02,89.02 0 0 1 89.02,89.02 z" />
</svg> 