<?xml version="1.0" encoding="UTF-8" standalone="no"?>
<svg xmlns="http://www.w3.org/2000/svg" version="1.1" width="600" height="518">
  <defs>
    <linearGradient id="gradient-u" x1="40" y1="490" x2="300" y2="259" gradientUnits="userSpaceOnUse" spreadMethod="reflect">
      <stop stop-color="#3f4b59" offset="0" />
      <stop stop-color="#dceefa" offset="0.72" />
    </linearGradient>
  </defs>
  <path fill="black" d="M 358,0.0977 C 319,3.55 241,10.5 241,10.5 V 84.6 C 234,88.4 227,92.5 220,96.4 200,83.4 159,57.2 159,57.2 L 119,105 1.24,12.1 c 0,0 51.5,113 76.1,162 -4.23,8.29 -6.82,17.3 -8.38,26.5 C 46,206 0,216 0,216 L 9.99,334 c 0,0 48.6,2.6 72.9,3.9 2.7,7.43 6.06,14.6 10.3,21.4 -12.3,19.8 -36.9,59.5 -36.9,59.5 l 92.9,73.2 c 0,0 34.6,-33.1 51.9,-49.6 7.9,3.26 16.1,5.81 24.4,7.81 5.33,22.9 16,68.6 16,68.6 l 118,-10.5 v -74.1 c 6.9,-3.78 13.6,-7.93 20.4,-11.8 20.6,13.1 61.7,39.2 61.7,39.2 l 39.3,-47.9 119,93.5 c 0,0 -51.8,-112 -76.7,-162 4.23,-8.29 6.82,-17.3 8.38,-26.5 C 554,313 600,302 600,302 l -9.99,-117 c 0,0 -48.6,-2.6 -72.9,-3.9 -2.7,-7.43 -6.06,-14.6 -10.3,-21.4 C 519,140 531,120 544,100 513,75.6 451,26.8 451,26.8 c 0,0 -34.6,33.1 -51.9,49.6 -7.9,-3.26 -16.1,-5.81 -24.4,-7.81 C 369,45.7 359,0 359,0 c 0,0 -0.731,0.0652 -1.1,0.0977 z"/>
  <path fill="url(#gradient-u)" d="m 256,24.4 c 0,23.1 0,46.2 0,69.4 -7.03,3.59 -13.9,7.46 -20.7,11.6 -5.07,3.08 -10.3,5.95 -15.5,8.74 -19.3,-12.3 -38.6,-24.5 -57.9,-36.8 -9.61,11.7 -19.2,23.4 -28.8,35.1 33.4,26.7 66.8,53.4 100,80.2 9.9,-9.65 20.4,-18.8 32.3,-25.9 10.1,-6.06 21.2,-10.6 32.7,-13.3 15.6,-3.75 31.8,-4.4 47.7,-3.34 5.84,0.372 11.7,1.14 17.4,2.45 20.9,4.74 40.3,15.8 55.1,31.2 10.7,11.1 19.1,24.4 24.5,38.9 5.27,13.8 7.95,28.6 8.41,43.3 0.517,15.6 -1.52,31.3 -6.61,46.1 -4.37,12.8 -10.9,24.8 -19.1,35.5 36.5,30.4 72.9,60.8 109,91.1 10.2,8.47 20.3,16.9 30.5,25.4 -20,-40.1 -40,-80.2 -59.9,-120 0.838,-1.34 1.7,-2.67 2.48,-4.04 0.274,-0.492 0.633,-1.13 0.922,-1.69 1.15,-2.19 2.12,-4.38 3.01,-6.7 2.49,-6.55 3.99,-13.4 4.92,-20.4 0.147,-1.08 0.292,-2.26 0.405,-3.39 0.0775,-0.903 0.475,-1.82 1.3,-2.28 0.915,-0.541 2.02,-0.55 3.02,-0.851 20.7,-4.78 41.5,-9.56 62.2,-14.3 -2.58,-30.3 -5.17,-60.6 -7.75,-90.9 -23.3,-1.25 -46.7,-2.49 -70,-3.74 -2.16,-7.15 -4.65,-14.2 -8.03,-20.9 -1.25,-2.48 -2.61,-4.89 -4.09,-7.24 -0.413,-0.642 -0.911,-1.41 -1.37,-2.1 -1.2,-1.79 -2.5,-3.52 -3.83,-5.22 11.7,-18.8 23.4,-37.6 35,-56.4 -23.9,-18.9 -47.9,-37.7 -71.8,-56.6 -16.6,15.8 -33.1,31.7 -49.7,47.5 -8.09,-4 -16.6,-7.2 -25.3,-9.6 -3.06,-0.855 -6.26,-1.64 -9.36,-2.33 -1.84,-0.41 -3.67,-0.779 -5.52,-1.16 -5.05,-21.7 -10.1,-43.4 -15.2,-65.1 -30.3,2.68 -60.5,5.37 -90.8,8.05 z M 35.1,55.2 c 19.8,39.8 39.6,79.6 59.5,119 -3.74,5.54 -6.49,11.7 -8.32,18.1 -1.88,6.46 -2.95,13.1 -3.62,19.8 -0.484,0.459 -1.08,0.771 -1.76,0.822 -14.7,3.41 -29.4,6.77 -44.1,10.2 -6.85,1.58 -13.7,3.16 -20.5,4.73 2.58,30.3 5.17,60.6 7.75,90.9 23.3,1.25 46.7,2.49 70,3.74 1.93,6.35 4.08,12.6 6.93,18.6 2.15,4.58 4.63,8.94 7.59,13.1 0.904,1.28 1.86,2.52 2.81,3.76 -11.7,18.8 -23.4,37.6 -35,56.4 23.9,18.9 47.9,37.7 71.8,56.6 16.6,-15.8 33.1,-31.7 49.7,-47.5 8.37,4.13 17.1,7.41 26.2,9.84 2.49,0.674 4.92,1.28 7.43,1.85 2.13,0.484 4.36,0.951 6.56,1.39 5.05,21.7 10.1,43.4 15.2,65.1 30.3,-2.68 60.5,-5.37 90.8,-8.05 0,-23.1 0,-46.2 0,-69.4 5.61,-2.88 11.1,-5.91 16.6,-9.12 3.31,-1.97 6.67,-4.04 10.1,-5.96 3.15,-1.8 6.34,-3.53 9.55,-5.24 19.3,12.3 38.6,24.5 57.9,36.8 9.61,-11.7 19.2,-23.4 28.8,-35.1 -33.4,-26.7 -66.8,-53.4 -100,-80.2 -9.17,8.94 -18.8,17.5 -29.7,24.3 -9.89,6.27 -20.7,11.1 -32,14.1 -14.6,3.94 -29.9,5.06 -44.9,4.47 -7.29,-0.263 -14.6,-0.861 -21.7,-2.4 -21.9,-4.6 -42.2,-16.2 -57.5,-32.4 -10.3,-10.9 -18.3,-23.8 -23.6,-37.7 -5.22,-13.6 -7.94,-28 -8.49,-42.6 -0.503,-12.5 0.587,-25 3.6,-37.1 3.04,-12.3 8.07,-24.2 14.8,-35 2.27,-3.68 4.72,-7.24 7.33,-10.7 C 128,132 81.2,93.1 34.6,54.3 c 0.156,0.314 0.312,0.629 0.468,0.943 z M 330,177 c -2.4,0.0357 -4.79,0.168 -7.18,0.392 -0.473,0.0538 -1.14,0.113 -1.68,0.18 -3.68,0.424 -7.34,1.08 -10.9,1.95 -2.37,0.57 -4.9,1.29 -7.3,2.08 -10.2,3.34 -19.9,8.42 -28.6,14.7 -5.02,3.63 -9.84,7.73 -14.2,12.2 -1.17,1.22 -2.3,2.49 -3.39,3.79 15.8,12.9 31.7,25.7 47.5,38.6 2.66,-3.49 5.98,-6.48 9.81,-8.64 6.59,-3.78 14.6,-5.19 22,-3.38 8.55,2.05 16,8.05 20,15.8 2.12,4.08 3.21,8.67 3.2,13.3 0.0236,7.15 -2.33,14.3 -6.76,20 -0.222,0.262 -0.435,0.532 -0.666,0.787 16.4,13.7 32.7,27.5 49.1,41.2 1.04,-1.21 2,-2.38 2.98,-3.65 6.54,-8.46 11.2,-18.3 14.3,-28.5 0.214,-0.727 0.472,-1.61 0.687,-2.4 0.978,-3.55 1.75,-7.16 2.35,-10.8 0.13,-0.822 0.278,-1.8 0.4,-2.68 0.169,-1.23 0.332,-2.6 0.462,-3.89 0.159,-1.61 0.295,-3.35 0.39,-5.02 0.288,-5.05 0.203,-10.2 -0.416,-15.2 -1.55,-13.2 -6.03,-26 -13.2,-37.2 -1.32,-2.07 -2.67,-4.01 -4.14,-5.97 -5.66,-7.49 -12.5,-14.1 -20,-19.7 -4,-2.99 -8.31,-5.75 -12.7,-8.23 -1.4,-0.775 -2.87,-1.59 -4.33,-2.14 -3.37,-1.37 -6.8,-2.59 -10.3,-3.63 -0.929,-0.275 -2,-0.578 -2.99,-0.835 -1.63,-0.429 -3.27,-0.814 -4.93,-1.16 -0.68,-0.133 -1.52,-0.303 -2.27,-0.436 -2.79,-0.506 -5.68,-0.895 -8.45,-1.14 -0.821,-0.0689 -1.56,-0.127 -2.38,-0.182 -0.356,-0.0157 -0.928,-0.0477 -1.37,-0.0696 -1.74,-0.0807 -3.47,-0.0949 -5.21,-0.0826 z m -132,11.5 c -2.17,2.42 -4.12,5.05 -5.95,7.73 -6.24,9.29 -10.5,19.8 -13,30.7 -0.376,1.64 -0.744,3.39 -1.05,5.09 -0.281,1.55 -0.545,3.22 -0.754,4.78 -0.201,1.49 -0.369,2.98 -0.507,4.48 -0.0605,0.752 -0.135,1.67 -0.192,2.48 -0.438,6.34 -0.333,12.7 0.61,19 0.718,5.02 1.88,10.1 3.47,15 0.247,0.77 0.463,1.41 0.735,2.18 0.941,2.67 2.01,5.3 3.21,7.86 0.172,0.365 0.438,0.914 0.646,1.35 7.12,14.6 18.4,27 31.7,36.2 4.17,2.91 8.51,5.59 13.1,7.87 1.4,0.625 2.85,1.18 4.23,1.71 11.5,4.36 23.8,6.71 36.1,6.35 0.453,-0.0151 1.07,-0.0297 1.51,-0.0529 2.04,-0.0855 4.08,-0.251 6.12,-0.477 0.746,-0.0888 1.65,-0.201 2.46,-0.315 2,-0.286 4.02,-0.641 5.94,-1.05 13.8,-2.89 26.9,-9.02 38.4,-17.2 1.52,-1.09 3.06,-2.26 4.48,-3.4 3.92,-3.14 7.73,-6.58 11.1,-10.3 0.719,-0.792 1.42,-1.6 2.11,-2.42 -15.8,-12.9 -31.7,-25.7 -47.5,-38.6 -2.56,3.35 -5.73,6.26 -9.38,8.39 -6.62,3.94 -14.8,5.46 -22.3,3.67 -8.22,-1.91 -15.4,-7.48 -19.6,-14.8 -2.57,-4.5 -3.91,-9.69 -3.78,-14.9 0.0906,-7.06 2.48,-14.1 6.92,-19.7 0.114,-0.253 0.734,-0.534 0.303,-0.739 -16.3,-13.7 -32.6,-27.4 -48.9,-41 z" />
</svg>