<?xml version="1.0" encoding="UTF-8" standalone="no"?>
<svg xmlns="http://www.w3.org/2000/svg" version="1.1" width="600" height="600.00262">
  <defs>
	 <linearGradient id="gradient-m" x1="75" y1="135" x2="300" y2="300" gradientUnits="userSpaceOnUse" spreadMethod="reflect">
		<stop offset="0%" stop-color="#612c75" />
		<stop offset="100%" stop-color="#bf99c3" />
	 </linearGradient>
  </defs>
  <path id="outline" fill="#ffffff" d="M 229,1.21 220,86.8 204,93.7 134,38.5 37.7,135 91.3,204 84.3,221 3.06,231 0,369 l 85.5,11.5 6.03,15.9 -52.9,68.4 97.2,97.5 67.2,-53.6 18.8,9.42 10.4,70 3.18,10.5 H 370 l 11.3,-81.2 20.1,-7 64.1,50.3 96.7,-96.5 -49.7,-65.7 10.1,-22.5 L 600,367 V 229 L 521,222 512,199 561,133 465,38 399,88 378,80 368,3.06 229,0 Z" />
  <path id="edge" fill="#612c75" d="m 244,586 -11.2,-75.4 -31.3,-15.6 -64.7,51.6 -82.1,-82.4 50.5,-65.3 -10.9,-29 -82,-11 2.58,-117 77.8,-10 12.4,-29.6 -51.3,-66.5 81.1,-81.5 67.4,53 28.9,-12.5 9.32,-82.8 117,2.59 9.28,73.9 33.9,12.8 62.9,-47.6 81.4,81 -47.3,62.9 14.4,35.4 74.8,7.14 v 116 l -73.2,9.49 -15.8,35.2 47.7,63 -81.7,81.5 -60.9,-47.8 -33.3,11.5 -10.9,78.1 H 244 Z" />
  <path id="body" fill="url(#gradient-m)" d="m 245,104 -45,20 -64,-50.3 -62.7,63 48.7,63 -19.1,45.3 -73.6,9.51 -2.02,91.2 77.6,10.4 16.9,44.9 -47.6,61.6 63.6,63.8 61.8,-49.3 46.6,23.2 10.6,71.5 89.5,0.007 10.4,-74.4 49.4,-17.1 57,44.7 63.4,-63.2 -45.2,-59.7 22.8,-50.7 68.5,-8.88 v -89.6 l -70.3,-6.7 -21,-51.4 44.6,-59.3 -63.2,-62.9 -59.2,44.8 -49.8,-18.9 -8.8,-70 -91.3,-2.01 z" />
  <path id="boss" fill="#612c75" d="m 300,103 c -0.435,1.87 -0.87,3.75 -1.3,5.63 -3.02,12.9 -5.99,25.9 -9.04,38.9 -1.49,6.45 -3.3,12.8 -5.23,19.1 A 136,136 0 0 0 165,286 c -0.189,0.0575 -0.378,0.124 -0.568,0.181 -7.04,2.11 -14.1,4.01 -21.3,5.64 -13.6,3.14 -27.2,6.3 -40.8,9.46 14.9,3.65 29.8,7.21 44.8,10.8 3.94,0.981 7.92,2.05 11.8,3.17 2.07,0.605 4.1,1.33 6.16,1.97 a 136,136 0 0 0 119,119 c 1.85,5.99 3.57,12 5.1,18.1 3.53,14.5 7,29.1 10.5,43.6 0.0984,0.605 0.195,0.725 0.291,0.0497 3.4,-14.2 6.74,-28.6 10.1,-42.9 1.51,-6.35 3.29,-12.6 5.21,-18.9 A 136,136 0 0 0 435,317 c 7.01,-2.14 14.1,-4.07 21.2,-5.76 14,-3.31 28,-6.62 42,-9.94 -15.1,-3.54 -30.4,-7.01 -45.5,-10.5 -5.88,-1.41 -11.7,-3.06 -17.5,-4.81 A 136,136 0 0 0 315,166 c -1.77,-5.86 -3.44,-11.7 -4.86,-17.7 -2.29,-9.7 -4.5,-19.4 -6.76,-29.1 -1.28,-5.55 -2.57,-11.1 -3.86,-16.6 z" />
  <path id="star" fill="#bf99c3" d="m 300,150 c 0,0 15.8,70.7 48,103 32.2,32.2 103,48 103,48 0,0 -71.2,16.3 -103,48 -31.7,31.7 -48,103 -48,103 0,0 -16.8,-71.7 -48,-103 -31.2,-31.2 -103,-48 -103,-48 0,0 70.7,-15.8 103,-48 32.2,-32.2 48,-103 48,-103 z" />'
</svg>
