<?xml version="1.0" encoding="UTF-8" standalone="no"?>
<svg xmlns="http://www.w3.org/2000/svg" viewBox="0 0 600 450.12003" version="1.1" width="600" height="450.12003">
	<defs>
		<linearGradient id="gradient-h" x1="0" y1="0" x2="0.5" y2="0" spreadMethod="reflect">
			<stop offset="0" stop-color="#8e7337" />
			<stop offset="0.9" stop-color="#edc67b" />
		</linearGradient>
		<linearGradient id="gradient-v" x1="0" y1="0" x2="0" y2="1" spreadMethod="reflect">
			<stop offset="0" stop-color="#8e7337" />
			<stop offset="0.9" stop-color="#edc67b" />
		</linearGradient>
	</defs>
	<path id="outline" fill="black" d="M 301.42316,0 C 252.21178,0 166.49219,27.484941 97.163858,113.36964 c 24.984712,17.99124 49.389452,37.35848 66.425832,60.10088 l -8.8569,5.52218 C 125.27163,151.64093 94.925437,127.55075 67.180643,106.56631 21.945009,147.92476 11.124025,179.38327 0,238.99365 c 18.262307,-0.96308 36.638376,-2.01943 53.388763,-0.98584 -20.671435,30.76543 -23.953876,60.20761 -28.085775,93.57455 91.754602,-3.94045 161.965412,1.13454 242.235052,44.35512 13.19511,24.47699 23.08063,50.37923 33.00266,74.18256 11.11828,-26.34547 20.15839,-50.98906 32.89752,-74.22243 73.77119,-44.24135 159.13805,-46.95857 242.84038,-44.22215 -3.15082,-33.51353 -9.3059,-70.21306 -28.7364,-93.66946 17.09591,-1.38193 31.92522,-0.5293 52.4578,1.21103 -11.14668,-73.30368 -33.52968,-97.00824 -66.10833,-132.69244 -30.29704,22.47041 -60.29259,46.39994 -87.6188,72.44142 l -8.92073,-5.50097 c 17.81507,-24.4538 42.83579,-42.58695 66.37864,-59.87415 C 430.59775,30.46937 354.97524,0.24575768 301.42316,0 Z" />
	<path id="center" fill="url(#gradient-h)" d="m 244.39395,308.91921 -0.8672,-163.90295 57.23594,-39.0245 57.23595,39.0245 -0.86721,163.90295 c -24.28192,29.48519 -43.07092,60.41515 -56.36874,92.79162 -13.29782,-32.37647 -32.08681,-63.30643 -56.36874,-92.79162 z M 235.72183,34.013208 c 10.40656,10.406536 15.60981,22.837145 15.60981,37.29009 v 58.103162 l -65.90807,42.49335 C 171.54819,150.50918 151.60233,130.27367 125.586,111.19502 156.8056,78.818551 193.51813,53.091859 235.72183,34.013208 Z m 130.08172,0 c 42.2037,19.078651 78.91624,44.805343 110.13585,77.181812 -26.01635,19.07865 -45.96221,39.31416 -59.83758,60.70479 L 350.19374,129.40646 V 71.303298 c 0,-14.452945 5.20326,-26.883554 15.60981,-37.29009 z M 259.13656,125.0704 V 65.232818 c 0,-12.140959 -4.91364,-23.704357 -14.74261,-34.688456 17.34424,-6.937691 36.13323,-10.984099 56.36874,-12.140959 l 1.89225,0.116206 c 19.51573,1.295614 37.6734,5.303864 54.47649,12.024753 -9.82896,10.984099 -14.74259,22.547497 -14.74259,34.688456 V 125.0704 L 300.76269,96.452425 Z" />
	<path id="right-main" fill="url(#gradient-h)" d="m 517.56555,231.7374 c 20.81307,18.50109 33.24368,45.38464 37.29009,80.65066 -95.97082,-2.89128 -170.26309,11.5634 -222.87334,43.36057 40.46928,-64.17365 102.33094,-105.51014 185.58325,-124.01123 z m -150.89478,-80.65066 73.71297,45.9622 c -27.75077,27.17321 -52.32234,61.57201 -73.71297,103.19816 z" />
	<path id="left-main" fill="url(#gradient-h)" d="M 83.959851,231.7374 C 167.21214,250.23849 229.0738,291.57498 269.54308,355.74863 216.93283,323.95146 142.64057,309.49678 46.669761,312.38806 50.71617,277.12204 63.146778,250.23849 83.959851,231.7374 Z M 234.85462,151.08674 V 300.2471 c -21.39063,-41.62615 -45.9622,-76.02495 -73.71296,-103.19816 z" />
	<path id="right-leaf" fill="url(#gradient-v)" d="m 532.30813,131.14088 c 26.59391,27.1732 42.20372,56.65839 46.82943,88.45556 -65.33051,-4.62571 -130.65929,17.05458 -195.98978,65.04086 29.48518,-49.7207 79.20588,-100.88618 149.16035,-153.49642 z" />
	<path id="left-leaf" fill="url(#gradient-v)" d="M 69.217258,131.14088 C 139.17173,183.75112 188.89242,234.9166 218.37761,284.6373 153.04711,236.65102 87.718345,214.97073 22.387841,219.59644 27.013547,187.79927 42.623353,158.31408 69.217258,131.14088 Z" />
</svg>
