<?xml version="1.0" encoding="UTF-8" standalone="no"?>
<svg xmlns="http://www.w3.org/2000/svg" version="1.1" width="600" height="407.11957">
	<defs>
		<linearGradient id="gradient-body" x1="0" y1="0" x2="0.5" y2="0" spreadMethod="reflect">
			<stop offset="0" stop-color="#596771" />
			<stop offset="0.9" stop-color="#c3e2ee" />
		</linearGradient>
	</defs>
	<path id="outline" fill="black" d="M 319.3358,9.236027 301.78205,51.012562 C 205.00645,41.669091 31.516455,85.916981 3.6612321,192.29928 -9.7161954,243.38921 11.971527,293.58567 95.207637,321.61087 l -2.641003,7.43924 c -2.720095,7.66205 -1.23275,13.85066 7.852546,17.13422 l 165.25076,59.72402 c 8.19332,2.96118 14.36009,0.594 17.81178,-8.22062 l 16.11024,-41.14095 c 15.44072,1.36378 30.97439,1.81881 46.46026,1.01965 36.02597,-1.68897 71.77486,-8.59767 105.94545,-20.10171 25.48782,-8.64626 50.13143,-20.05171 72.62419,-34.89134 17.62269,-11.68049 33.89102,-25.64346 47.0099,-42.28797 11.18166,-14.2297 19.9469,-30.53452 24.498,-48.10631 3.27856,-12.54458 4.64116,-25.65302 3.43873,-38.5841 -1.33303,-12.77849 -6.11476,-25.10878 -13.38697,-35.67261 -8.81075,-12.92519 -20.86867,-23.3477 -34.01887,-31.67636 -14.27016,-9.033954 -29.87154,-15.822278 -45.90886,-21.03638 l 3.29578,-8.019741 c 3.61993,-8.808518 -0.7769,-14.608349 -8.54098,-17.398397 L 337.63224,1.0816781 C 328.75682,-2.1077334 322.33585,2.0961616 319.3358,9.236027 Z M 119.41243,252.25358 C 83.533194,244.26535 79.437699,227.34191 80.993266,207.82514 83.905568,171.28623 137.91385,146.98923 165.1883,137.09074 Z m 401.64408,-53.97369 c -2.3601,37.37482 -55.59626,63.81856 -85.9642,72.33384 L 480.258,154.05899 c 38.1991,10.27913 42.06243,24.20527 40.79851,44.2209 z" />
	<path id="body" fill="url(#gradient-body)" d="m 288.46504,273.52616 25.33118,9.71029 -43.12628,110.11548 -165.37739,-59.77447 2.83568,-7.90191 c 56.82176,11.42216 104.12668,15.85063 147.47163,-7.46988 16.28147,-8.75978 24.70264,-19.91153 32.86518,-44.67951 z M 298.07448,64.335319 274.5329,117.31724 187.76423,86.113028 173.63038,119.85036 c -60.23162,19.98377 -110.506527,47.96529 -109.440146,96.61533 0.596993,27.23574 27.69321,45.44096 63.579046,51.35157 l 66.12604,-166.36712 164.99276,61.16067 -27.44211,71.95458 c 27.40802,5.91192 44.90083,2.64404 61.96272,-9.41129 24.49919,-17.31025 37.90456,-51.1209 42.4557,-79.34867 3.44266,-21.35258 -8.11804,-47.969447 -24.44229,-60.353859 71.51851,-3.220273 174.38332,29.161959 175.07868,95.661119 1.13595,108.63366 -163.57229,172.74794 -282.67983,162.21956 l 20.52993,-56.29613 91.89388,32.59308 13.74659,-33.75879 c 61.31786,-14.43899 109.66934,-50.50311 106.89519,-98.98634 -1.54165,-26.94323 -24.76099,-42.80784 -65.29088,-47.87408 l -63.4584,164.23339 -165.78874,-60.4386 25.91609,-71.05775 c -25.93807,-9.12245 -40.60671,-2.65641 -56.21528,8.05378 -24.46866,16.78975 -36.4752,38.57938 -43.48518,77.68227 -2.8143,29.83422 4.01635,51.81046 25.03799,67.51756 C 88.172613,317.40388 12.994449,283.56464 15.549804,213.60144 19.437435,107.16182 193.92595,57.655467 298.07448,64.335319 Z m -43.38434,113.776751 -26.59773,71.77166 49.39579,19.42057 c -14.63551,31.80498 -34.61927,48.12923 -59.95045,48.9736 -16.46526,0 -29.55304,-8.86591 -35.46364,-26.17554 -5.91061,-17.30964 -1.46583,-48.11066 5.48842,-64.17232 13.90175,-32.1081 43.05455,-57.27378 67.12761,-49.81797 z M 382.89967,89.451677 c 14.2888,-0.347004 29.42938,11.467243 35.14231,24.568873 10.27487,23.56364 3.51218,54.91627 -10.62979,76.38305 -12.52725,19.01571 -34.38019,42.8137 -58.45156,35.35789 l 25.95506,-70.80766 -51.96647,-19.09923 c 14.63466,-31.80414 34.68761,-45.789428 59.95045,-46.402923 z m -50.6946,-75.969525 163.38754,59.141259 -3.34523,7.957038 c -31.56952,-6.457681 -93.1385,-15.529669 -134.04684,2.46163 -20.46428,9.00009 -38.06646,23.822681 -46.22816,48.590661 l -25.33118,-9.71029 z" />
</svg>
