<?xml version="1.0" encoding="UTF-8"?>
<svg width="160px" height="98px" viewBox="0 0 160 98" version="1.1" xmlns="http://www.w3.org/2000/svg" xmlns:xlink="http://www.w3.org/1999/xlink">
    <g stroke="none" stroke-width="1" fill="none" fill-rule="evenodd">
        <g id="mh3-wm" fill="#000000" fill-rule="nonzero">
            <path d="M92.82,97.5 C93.08,95.59 93.65,93.81 94.25,92.05 C96.19,86.38 98.85,81.08 102.46,76.28 C102.93,75.65 102.97,75.29 102.42,74.68 C100.2,72.27 98.02,69.82 96.02,67.22 C95.67,66.76 95.51,66.42 95.97,65.88 C102.11,58.72 101.56,48.16 96.13,40.65 C90.58,32.98 81.46,30.8 73.39,33.26 C68.26,34.82 64.48,38.37 61.94,43.12 C58.48,49.58 58.08,56.15 61.45,62.79 C61.96,63.79 62.53,64.78 63.34,65.55 C64.14,66.31 63.89,66.81 63.33,67.53 C61.41,69.94 59.4,72.27 57.3,74.52 C56.66,75.2 56.61,75.6 57.18,76.39 C61.61,82.41 64.77,89.04 66.53,96.31 C66.6,96.58 66.65,96.85 66.69,97.13 C66.7,97.24 66.65,97.36 66.62,97.51 C65.84,97.35 65.23,96.88 64.58,96.51 C58.93,93.36 53.3,90.17 47.63,87.04 C46.82,86.59 46.62,86.12 46.75,85.25 C48.72,72.26 46.85,59.79 41.51,47.82 C38.23,40.45 33.76,33.89 28.01,28.24 C27.27,27.51 27.31,27.14 28.06,26.51 C31.4,23.71 34.7,20.88 38.12,18.17 C41.34,15.62 44.61,13.17 48.03,10.94 C54.95,6.43 62.26,2.76 70.42,1 C80.12,-1.09 89.46,0.17 98.52,3.99 C102.81,5.8 106.93,7.95 110.8,10.54 C115.97,14 121.06,17.59 125.75,21.72 C127.52,23.28 129.28,24.87 131.15,26.33 C132.42,27.32 132.37,27.42 131.27,28.52 C129.59,30.19 127.93,31.9 126.48,33.77 C124.26,36.65 122.21,39.64 120.43,42.82 C115.92,50.87 113.42,59.53 112.47,68.68 C111.87,74.4 111.86,80.08 112.84,85.76 C112.92,86.21 112.9,86.49 112.46,86.74 C106,90.33 99.55,93.93 93.1,97.53 C93.07,97.55 93.02,97.53 92.81,97.53 L92.81,97.51 L92.82,97.5 Z" id="Path"></path>
            <path d="M-3.55271368e-15,60.33 C2.84,58.74 5.47,57.25 8.12,55.77 C15.26,51.78 22.41,47.81 29.54,43.8 C30.21,43.42 30.49,43.45 30.9,44.14 C35.37,51.56 38.19,59.54 39.32,68.14 C39.9,72.52 39.9,76.9 39.54,81.29 C39.45,82.33 39.15,82.26 38.41,81.84 C31.04,77.7 23.66,73.59 16.29,69.47 C11.27,66.67 6.26,63.85 1.25,61.05 C0.9,60.86 0.56,60.65 -3.55271368e-15,60.33 Z" id="Path"></path>
            <path d="M159.35,60.46 C156.76,61.91 154.17,63.38 151.56,64.84 C145.8,68.06 140.04,71.28 134.27,74.48 C129.92,76.89 125.55,79.25 121.22,81.68 C120.34,82.17 120.1,81.98 120.01,81.06 C119.12,71.5 120.53,62.29 124.06,53.38 C125.3,50.26 126.81,47.27 128.52,44.38 C128.93,43.68 129.17,43.52 130.02,43.95 C133.47,45.68 136.79,47.64 140.17,49.5 C146.32,52.9 152.46,56.35 158.59,59.78 C158.86,59.93 159.2,60 159.34,60.45 L159.35,60.45 L159.35,60.46 Z" id="Path"></path>
        </g>
    </g>
</svg>
