<?xml version="1.0" encoding="UTF-8"?>
<svg width="192px" height="120px" viewBox="0 0 192 120" version="1.1" xmlns="http://www.w3.org/2000/svg" xmlns:xlink="http://www.w3.org/1999/xlink">
    <defs>
        <linearGradient x1="50.0025403%" y1="-0.0068258047%" x2="50.0025403%" y2="100.001139%" id="linearGradient-1">
            <stop stop-color="#626E77" offset="0%"></stop>
            <stop stop-color="#C7E1F1" offset="40%"></stop>
            <stop stop-color="#C7E1F1" offset="100%"></stop>
        </linearGradient>
        <linearGradient x1="96.0857628%" y1="48.1429546%" x2="5.05185412%" y2="66.9042527%" id="linearGradient-2">
            <stop stop-color="#626E77" offset="0%"></stop>
            <stop stop-color="#626E77" offset="10%"></stop>
            <stop stop-color="#C7E1F1" offset="60%"></stop>
            <stop stop-color="#C7E1F1" offset="100%"></stop>
        </linearGradient>
        <linearGradient x1="3.91320041%" y1="2.19809811%" x2="95.0252038%" y2="-16.4765182%" id="linearGradient-3">
            <stop stop-color="#626E77" offset="0%"></stop>
            <stop stop-color="#626E77" offset="10%"></stop>
            <stop stop-color="#C7E1F1" offset="60%"></stop>
            <stop stop-color="#C7E1F1" offset="100%"></stop>
        </linearGradient>
    </defs>
    <g stroke="none" stroke-width="1" fill="none" fill-rule="evenodd">
        <g id="mh3-u" fill-rule="nonzero">
            <path d="M100.3,119.21 C100.04,116.13 100.05,113.23 100.17,110.33 C100.54,101.15 103.95,92.97 108.44,85.15 C108.96,84.25 108.95,83.71 108.23,82.89 C105.84,80.2 103.77,77.27 102.15,74.03 C101.7,73.13 101.71,72.68 102.62,72.04 C110.1,66.81 110.45,55.65 103.25,50.5 C98.78,47.3 93.91,47.08 89.16,49.79 C84.48,52.46 82.57,56.79 82.95,62.1 C83.26,66.44 85.37,69.8 88.92,72.25 C89.56,72.69 89.6,73 89.29,73.66 C87.63,77.16 85.37,80.24 82.85,83.14 C82.31,83.76 82.3,84.16 82.71,84.88 C86.1,90.82 88.98,96.96 90.32,103.74 C91.27,108.56 91.23,113.43 91.1,118.31 C91.06,119.63 90.4,118.86 89.98,118.63 C83.51,115.02 77.04,111.39 70.57,107.77 C47.45,94.82 24.32,81.87 1.2,68.91 C0.86,68.72 0.52,68.51 0,68.21 C13.87,60.44 27.62,52.73 41.48,44.97 C39.22,42.49 37.04,40.06 34.42,38.06 C33.48,37.35 31.89,36.77 31.87,35.78 C31.87,34.97 33.29,34.11 34.12,33.3 C42.28,25.32 50.83,17.82 60.47,11.65 C67.59,7.1 75.11,3.44 83.37,1.46 C94.47,-1.2 105.29,-0.15 115.87,3.95 C125.33,7.62 133.7,13.13 141.6,19.41 C147.71,24.26 153.42,29.57 158.98,35.04 C159.69,35.74 159.56,36.04 158.85,36.54 C155.79,38.68 153.13,41.26 150.6,44 C149.75,44.93 150.08,45.13 150.93,45.61 C163.98,52.89 177.02,60.2 190.06,67.51 C190.43,67.72 190.88,67.84 191.16,68.28 C160.92,85.22 130.68,102.16 100.29,119.18 L100.29,119.21 L100.3,119.21 Z M108.68,105.4 C108.89,105.4 108.94,105.43 108.97,105.4 C115.42,101.8 121.87,98.2 128.33,94.61 C128.78,94.36 128.79,94.08 128.71,93.63 C127.72,87.96 127.74,82.27 128.34,76.55 C129.29,67.4 131.79,58.74 136.3,50.69 C138.08,47.51 140.13,44.51 142.35,41.64 C143.8,39.76 145.46,38.06 147.14,36.39 C148.25,35.29 148.3,35.2 147.02,34.2 C145.15,32.74 143.39,31.15 141.62,29.59 C136.93,25.46 131.85,21.87 126.67,18.41 C122.8,15.82 118.68,13.67 114.39,11.86 C105.33,8.05 95.99,6.78 86.29,8.87 C78.13,10.63 70.82,14.3 63.9,18.81 C60.48,21.04 57.2,23.49 53.99,26.04 C50.57,28.75 47.26,31.58 43.93,34.38 C43.18,35.01 43.13,35.38 43.88,36.11 C49.64,41.76 54.11,48.32 57.38,55.69 C62.71,67.66 64.58,80.13 62.62,93.12 C62.49,93.99 62.69,94.46 63.5,94.91 C69.17,98.03 74.8,101.22 80.45,104.38 C81.1,104.74 81.71,105.22 82.49,105.38 C82.52,105.23 82.57,105.11 82.56,105 C82.52,104.72 82.46,104.45 82.4,104.18 C80.64,96.9 77.48,90.27 73.05,84.26 C72.47,83.48 72.53,83.07 73.17,82.39 C75.28,80.15 77.29,77.82 79.2,75.4 C79.77,74.69 80.01,74.18 79.21,73.42 C78.41,72.65 77.83,71.66 77.32,70.66 C73.95,64.02 74.36,57.45 77.81,50.99 C80.35,46.24 84.12,42.69 89.26,41.13 C97.32,38.67 106.45,40.86 112,48.52 C117.43,56.03 117.98,66.59 111.84,73.75 C111.38,74.29 111.54,74.63 111.89,75.09 C113.89,77.7 116.06,80.15 118.29,82.55 C118.85,83.15 118.8,83.52 118.33,84.15 C114.72,88.95 112.06,94.25 110.12,99.92 C109.52,101.69 108.95,103.47 108.69,105.37 L108.69,105.39 L108.68,105.4 Z M15.86,68.23 C16.42,68.55 16.76,68.76 17.11,68.95 C22.12,71.76 27.13,74.57 32.15,77.37 C39.52,81.49 46.91,85.6 54.27,89.74 C55.01,90.16 55.31,90.23 55.4,89.19 C55.76,84.8 55.76,80.42 55.18,76.04 C54.05,67.45 51.23,59.46 46.76,52.04 C46.34,51.35 46.06,51.33 45.4,51.7 C38.27,55.71 31.12,59.68 23.98,63.67 C21.34,65.14 18.7,66.63 15.86,68.23 Z M175.21,68.36 C175.07,67.91 174.73,67.84 174.46,67.69 C168.32,64.26 162.19,60.81 156.04,57.41 C152.67,55.54 149.34,53.59 145.89,51.86 C145.04,51.43 144.8,51.59 144.39,52.29 C142.68,55.18 141.17,58.17 139.93,61.29 C136.4,70.2 134.99,79.41 135.88,88.97 C135.97,89.9 136.21,90.09 137.09,89.59 C141.42,87.16 145.8,84.8 150.14,82.39 C155.91,79.19 161.67,75.97 167.43,72.75 C170.04,71.29 172.63,69.82 175.22,68.37 L175.21,68.37 L175.21,68.36 Z" id="Shape" fill="#000000"></path>
            <path d="M108.68,105.4 C108.94,103.49 109.51,101.71 110.11,99.95 C112.05,94.28 114.71,88.98 118.32,84.18 C118.79,83.55 118.83,83.19 118.28,82.58 C116.06,80.17 113.88,77.72 111.88,75.12 C111.53,74.66 111.37,74.32 111.83,73.78 C117.97,66.62 117.42,56.06 111.99,48.55 C106.44,40.88 97.32,38.7 89.25,41.16 C84.12,42.72 80.34,46.27 77.8,51.02 C74.34,57.48 73.94,64.05 77.31,70.69 C77.82,71.69 78.39,72.68 79.2,73.45 C80,74.21 79.75,74.71 79.19,75.43 C77.27,77.84 75.26,80.17 73.16,82.42 C72.52,83.1 72.47,83.5 73.04,84.29 C77.47,90.31 80.63,96.94 82.39,104.21 C82.46,104.48 82.51,104.75 82.55,105.03 C82.56,105.14 82.51,105.26 82.48,105.41 C81.7,105.25 81.09,104.78 80.44,104.41 C74.79,101.26 69.16,98.07 63.49,94.94 C62.68,94.49 62.48,94.02 62.61,93.15 C64.58,80.16 62.71,67.69 57.37,55.72 C54.09,48.35 49.62,41.79 43.87,36.14 C43.13,35.41 43.17,35.04 43.92,34.41 C47.26,31.61 50.56,28.78 53.98,26.07 C57.2,23.52 60.47,21.07 63.89,18.84 C70.81,14.33 78.12,10.66 86.28,8.9 C95.98,6.81 105.32,8.07 114.38,11.89 C118.67,13.7 122.79,15.85 126.66,18.44 C131.83,21.9 136.92,25.49 141.61,29.62 C143.38,31.18 145.14,32.77 147.01,34.23 C148.28,35.22 148.23,35.32 147.13,36.42 C145.45,38.09 143.79,39.8 142.34,41.67 C140.12,44.55 138.07,47.54 136.29,50.72 C131.78,58.77 129.28,67.43 128.33,76.58 C127.73,82.3 127.72,87.98 128.7,93.66 C128.78,94.11 128.76,94.39 128.32,94.64 C121.86,98.23 115.41,101.83 108.96,105.43 C108.93,105.45 108.88,105.43 108.67,105.43 L108.67,105.41 L108.68,105.4 Z" id="Path" fill="url(#linearGradient-1)"></path>
            <path d="M15.86,68.23 C18.7,66.64 21.33,65.15 23.98,63.67 C31.12,59.68 38.27,55.71 45.4,51.7 C46.07,51.32 46.35,51.35 46.76,52.04 C51.23,59.46 54.05,67.44 55.18,76.04 C55.76,80.42 55.76,84.8 55.4,89.19 C55.31,90.23 55.01,90.16 54.27,89.74 C46.9,85.6 39.52,81.49 32.15,77.37 C27.13,74.57 22.12,71.75 17.11,68.95 C16.76,68.76 16.42,68.55 15.86,68.23 Z" id="Path" fill="url(#linearGradient-2)"></path>
            <path d="M175.21,68.36 C172.62,69.81 170.03,71.28 167.42,72.74 C161.66,75.96 155.9,79.18 150.13,82.38 C145.78,84.79 141.41,87.15 137.08,89.58 C136.2,90.07 135.96,89.88 135.87,88.96 C134.98,79.4 136.39,70.19 139.92,61.28 C141.16,58.16 142.67,55.17 144.38,52.28 C144.79,51.58 145.03,51.42 145.88,51.85 C149.33,53.58 152.65,55.54 156.03,57.4 C162.18,60.8 168.32,64.25 174.45,67.68 C174.72,67.83 175.06,67.9 175.2,68.35 L175.21,68.35 L175.21,68.36 Z" id="Path" fill="url(#linearGradient-3)"></path>
        </g>
    </g>
</svg>
