<?xml version="1.0" encoding="UTF-8" standalone="no"?>
<svg xmlns="http://www.w3.org/2000/svg" version="1.1" width="600" height="437.62799">
	<defs>
		<linearGradient id="gradient-body" x1="165" y1="392" x2="286" y2="219" gradientUnits="userSpaceOnUse" spreadMethod="reflect">
			<stop offset="0" stop-color="#596771" />
			<stop offset="0.9" stop-color="#c3e2ee" />
		</linearGradient>
	</defs>
	<path id="outline" fill="black" d="M 297,0.558 244,81.8 c 13.6,-4.21 29.7,-6.5 42.7,-6.61 16.5,0.0018 32.9,2.84 48.4,8.4 L 362,13.8 C 341,6.23 318,1.56 297,0.558 Z m 189,127 -30.7,41.4 -32.7,1.03 c 5.75,15.8 8.69,32.5 8.69,49.3 -0.0438,7.51 -0.675,15 -1.89,22.4 l 65.9,45.4 c 8.06,-23.7 11.2,-45 10.9,-67.8 -0.145,-36.7 -5.87,-63.2 -20.2,-91.7 z M 143,229 84.3,302 c 9.61,22.4 22.6,43.9 38,61.3 l 12.2,-46.8 26.6,11.6 9.95,-23.4 c -16,-25.4 -26,-49.4 -27.9,-76.1 z m 40.9,91 -17.1,33.2 -18.5,-8.48 -8.49,36.8 c 23.2,19.8 50.1,36.3 77.2,45.1 v -81.5 c -14.5,-6.89 -24,-16.3 -33.1,-25.1 z m 174,24.3 c -39.5,20.1 -81.2,24 -120,10.2 v 78 c 72.3,13.4 129,-2.17 185,-41.8 z M 380,21.2 353,91.3 c 28.8,15.3 46.8,33.7 60.9,60.2 h 30.8 l 32.4,-40.5 c -24.5,-41.1 -52.5,-70.9 -96.9,-89.7 z m 99.4,385 -193,-134 -36.4,-16.7 -50.4,-35.9 -1.08,69.1 -52.9,-96.5 -68.1,88.9 -9.08,-48.6 60.2,-77.6 -15.3,-25.3 L 27.3,68.9 13.6,68.6 0,68.3 2.94,18.5 46.2,1.6 57.1,28.1 152,92.7 173,92.4 224,6.9 275,0 l -62.3,96.9 111,15.9 -65.7,23 58.2,39.7 25.9,27.2 L 532,338 600,438 Z" />
	<path id="body" fill="url(#gradient-body)" d="m 303,8.54 c 16.3,1.25 32.3,4.37 47.9,9.31 l -21.4,55.1 c -13.8,-4.04 -28.1,-6.11 -42.4,-6.16 -7.68,0.0475 -15.3,0.676 -22.9,1.88 z m 83.1,24.1 c 33.3,17.7 61.2,43.9 80.9,76 l -26.7,33.4 H 418 C 405,120 386,101 364,88.1 Z m 98.6,112 c 9,23.8 13.6,49 13.7,74.5 -0.0684,18.1 -2.47,36.2 -7.15,53.7 l -52.9,-36.5 c 0.695,-5.73 1.06,-11.5 1.11,-17.3 -0.034,-13.6 -1.88,-27.1 -5.49,-40.2 l 26,-0.818 z M 138,251 c 4.11,19.4 12,37.7 23.1,54.1 l -4.69,11 -28,-12.2 -10.9,41.7 c -9.23,-12.4 -17.1,-25.8 -23.4,-40 z m 49.4,83.7 c 6.39,5.55 13.2,10.6 20.4,15 v 65.6 c -21,-8.48 -40.5,-20.3 -57.7,-34.9 l 5.06,-21.9 16.2,7.41 z m 169,20.3 52,37.2 c -53.6,31.3 -105,45.3 -161,34.8 v -60.5 c 36.5,9.83 78.2,3.84 109,-11.5 z m -163,-232 16.7,26.2 83.7,-34.4 -85.6,-11.8 z m -43.1,61.1 42,76.4 0.0647,-90.5 -26,-4.51 z M 8.66,59.1 10.4,25.6 40.4,12.9 48.9,29.8 24.8,59.6 Z M 579,423 525,343 335,210 l -27.4,-27.7 -59.2,-42.6 -35,15.2 11.4,19.4 -24.4,-3.29 -0.248,38 54.9,39.3 36.9,16.4 193,135 z m -416,-265 49.1,8.73 -27.3,-43.8 72.3,-112 -27.8,3.3 -53.7,88 h -24.4 l -7.69,17.3 -16.4,12.6 12.9,21.1 -61.9,80.4 4.22,26.1 z m 146,61.2 c 0,12.3 -10,22.3 -22.3,22.3 -12.3,0 -22.3,-10 -22.3,-22.3 0,-12.3 10,-22.3 22.3,-22.3 12.3,0 22.3,10 22.3,22.3 z m -42.2,-29.8 c 0,12.3 -10,22.3 -22.3,22.3 -12.3,0 -22.3,-10 -22.3,-22.3 0,-12.3 10,-22.3 22.3,-22.3 12.3,0 22.3,10 22.3,22.3 z" />
	<path id="detailing" fill="#596771" d="m 301,219 c 0,8.09 -6.56,14.6 -14.6,14.6 -8.09,0 -14.6,-6.56 -14.6,-14.6 0,-8.09 6.56,-14.6 14.6,-14.6 8.09,0 14.6,6.56 14.6,14.6 z m -42.2,-29.8 c 0,8.09 -6.56,14.6 -14.6,14.6 -8.09,0 -14.6,-6.56 -14.6,-14.6 0,-8.09 6.56,-14.6 14.6,-14.6 8.09,0 14.6,6.56 14.6,14.6 z M 136,113 143,98.9 54.1,38 34.6,64 37.8,64.8 123,125 Z" />
	</svg>