<?xml version="1.0" encoding="UTF-8" standalone="no"?> 
<svg xmlns="http://www.w3.org/2000/svg" version="1.1" width="600" height="437.62799">
	<defs>
		<linearGradient id="gradient-body" x1="43.752232" y1="103.79002" x2="75.594131" y2="57.850174" spreadMethod="reflect" gradientUnits="userSpaceOnUse">
			<stop offset="0" stop-color="#807241"/>
			<stop offset="0.9" stop-color="#e1c47e"/>
		</linearGradient>
	</defs>
	<path id="outline" fill="black" d="M 78.5,0.148 64.5,21.6 c 3.59,-1.12 7.87,-1.72 11.3,-1.75 4.37,4.87e-4 8.7,0.752 12.8,2.22 L 95.8,3.65 C 90.1,1.65 84.2,0.413 78.5,0.148 Z m 50,33.6 -8.12,11 -8.66,0.273 c 1.52,4.18 2.3,8.59 2.3,13 -0.0116,1.99 -0.178,3.97 -0.499,5.93 l 17.4,12 c 2.13,-6.27 2.97,-11.9 2.88,-17.9 -0.0383,-9.71 -1.55,-16.7 -5.33,-24.3 z M 37.9,60.6 22.3,80 c 2.54,5.91 5.97,11.6 10.1,16.2 l 3.23,-12.4 7.04,3.07 2.63,-6.18 C 41,74 38.4,67.6 37.9,60.6 Z m 10.8,24.1 -4.52,8.78 -4.91,-2.24 -2.25,9.73 c 6.15,5.24 13.3,9.61 20.4,11.9 V 91.3 c -3.84,-1.82 -6.36,-4.3 -8.76,-6.65 z m 46,6.44 c -10.5,5.32 -21.5,6.35 -31.7,2.71 v 20.6 c 19.1,3.53 34.1,-0.574 48.9,-11.1 z M 101,5.62 93.3,24.2 c 7.61,4.06 12.4,8.91 16.1,15.9 h 8.14 L 126,29.4 C 120,18.5 112,10.6 101,5.62 Z M 127,107 75.7,71.9 66.1,67.5 52.8,58 52.5,76.3 38.5,50.8 20.5,74.3 18.1,61.4 34,40.9 29.9,34.2 7.21,18.2 3.61,18.2 0,18.1 0.778,4.89 12.2,0.424 15.1,7.44 40.3,24.5 45.8,24.4 59.4,1.83 72.6,0 56.2,25.6 l 29.3,4.21 -17.4,6.08 15.4,10.5 6.86,7.19 50.4,35.8 18,26.4 z" />
	<path id="body" fill="url(#gradient-body)" d="m 80.1,2.26 c 4.3,0.33 8.55,1.16 12.7,2.46 L 87.1,19.3 C 83.4,18.2 79.6,17.7 75.8,17.7 73.8,17.7 71.8,17.8 69.8,18.2 Z m 22,6.38 c 8.8,4.67 16.2,11.6 21.4,20.1 l -7.07,8.83 h -5.82 C 107,31.7 102,26.8 96.3,23.3 Z M 128,38.3 c 2.38,6.3 3.6,13 3.61,19.7 -0.0181,4.8 -0.654,9.58 -1.89,14.2 L 116,62.6 c 0.184,-1.52 0.282,-3.04 0.293,-4.57 -0.009,-3.59 -0.498,-7.16 -1.45,-10.6 l 6.87,-0.216 z m -91.7,28 c 1.09,5.12 3.16,9.98 6.11,14.3 l -1.24,2.91 -7.41,-3.23 -2.88,11 c -2.44,-3.29 -4.51,-6.84 -6.18,-10.6 z m 13.1,22.1 c 1.69,1.47 3.5,2.79 5.41,3.96 v 17.3 c -5.55,-2.24 -10.7,-5.36 -15.3,-9.24 l 1.34,-5.8 4.29,1.96 z m 44.7,5.37 13.8,9.84 c -14.2,8.29 -27.9,12 -42.5,9.2 V 96.9 c 9.65,2.6 20.7,1.02 28.8,-3.04 z M 51.1,32.5 55.5,39.4 77.7,30.3 55.1,27.2 Z M 39.7,48.7 50.8,68.9 50.8,44.9 44,43.8 Z M 2.29,15.6 2.75,6.76 10.7,3.41 12.9,7.88 6.56,15.8 Z M 153,112 139,90.8 88.6,55.5 81.4,48.2 65.7,37 l -9.27,4.02 3.01,5.12 -6.47,-0.87 -0.0657,10 14.5,10.4 9.76,4.33 51,35.6 z M 43.2,41.7 56.2,44.1 48.9,32.5 68.1,2.92 60.7,3.79 46.5,27.1 h -6.45 l -2.03,4.59 -4.33,3.34 3.42,5.59 -16.4,21.3 1.12,6.89 z m 38.6,16.2 c 0,3.27 -2.65,5.91 -5.91,5.91 -3.27,0 -5.91,-2.65 -5.91,-5.91 0,-3.27 2.65,-5.91 5.91,-5.91 3.27,0 5.91,2.65 5.91,5.91 z m -11.2,-7.88 c 0,3.27 -2.65,5.91 -5.91,5.91 -3.27,0 -5.91,-2.65 -5.91,-5.91 0,-3.27 2.65,-5.91 5.91,-5.91 3.27,0 5.91,2.65 5.91,5.91 z" />
	<path id="detailing" fill="#807241" d="m 79.7,57.9 c 0,2.14 -1.74,3.88 -3.88,3.88 -2.14,0 -3.88,-1.74 -3.88,-3.88 0,-2.14 1.74,-3.88 3.88,-3.88 2.14,0 3.88,1.74 3.88,3.88 z M 68.5,50.1 c 0,2.14 -1.74,3.88 -3.88,3.88 -2.14,0 -3.88,-1.74 -3.88,-3.88 0,-2.14 1.74,-3.88 3.88,-3.88 2.14,0 3.88,1.74 3.88,3.88 z M 36,30 37.7,26.2 14.3,10 9.15,16.9 10,17.2 32.4,33 Z" />
</svg>