<?xml version="1.0" encoding="UTF-8" standalone="no"?> 
<svg xmlns="http://www.w3.org/2000/svg" version="1.1" width="600" height="671.29706">
	<defs>
		<linearGradient id="gradient-body" x1="0" y1="0" x2="0.5" y2="0" spreadMethod="reflect">
			<stop offset="0" stop-color="#807241" />
			<stop offset="0.9" stop-color="#e1c47e" />
		</linearGradient>
	</defs>
	<path id="backdrop" fill="black" d="m 529.5,179.1 c -2.236,-8.443 -3.865,-17.1 -4.076,-25.85 -0.0205,-8.959 0.8677,-16.32 3.939,-24.21 3.866,-10.7 11.43,-16.55 19.38,-23.64 L 487.2,64.71 113,65.42 C 92.76,78.77 72.53,92.11 52.3,105.5 c 3.263,2.499 5.846,4.522 8.64,7.202 6.902,8.101 11.51,15.8 13.5,24.88 2.722,14.3 0.8416,27.96 -2.665,41.39 L 95.21,442.9 c 4.585,21.67 9.168,43.35 13.76,65.02 13.1,5.813 25.82,12.48 38.07,19.92 24.71,14.96 47.68,32.77 69.14,52.12 32.91,30.98 59.38,59.95 84.46,91.32 24.18,-30.39 50.07,-59.48 78.57,-85.93 18.79,-17.35 39.05,-33.72 58.69,-47.04 18.48,-12.31 35.65,-21.95 54.42,-30.38 4.783,-22.61 9.567,-45.22 14.35,-67.83 z" />
	<path id="outline" fill="black" d="m 420.6,0 c -0.245,0.1559 -0.4901,0.3119 -0.7351,0.4678 C 397.8,15.66 372.1,24.76 346.8,29 315.7,33.69 282.9,34.01 253.1,28.77 226.5,24.7 202.4,13.3 180.2,0.05164 L 81.66,48.44 c 18.44,16.7 39.04,33.09 42.36,58.8 2.214,24.87 -9.169,49.76 -32.24,58.26 C 57.4,177.1 34.32,167.6 0,158.8 L 70.86,442.1 c 96.55,39.22 161.1,98.9 229.8,169.1 88.43,-85.3 112.8,-118.5 229.8,-169.5 0.9136,-3.137 0.9523,-3.241 2.091,-7.943 3.269,-13.46 6.599,-26.91 9.892,-40.37 L 600,158.9 c -27.66,7.578 -54.2,16.63 -82.09,9.255 -28.54,-8.087 -42.85,-30.63 -40.9,-58.68 3.052,-26.38 26.8,-46.68 42.37,-61.19 z" />
	<path id="body" fill="url(#gradient-body)"  d="m 317.3,572.1 c 72.35,-72.07 139,-119.2 199.9,-141.4 l 61.43,-250 c -29.81,8.813 -56.64,7.776 -80.48,-3.11 -19.05,-9.331 -34.21,-29.55 -36.55,-55.99 -2.645,-26.9 9.331,-50.16 30.72,-69.21 L 421.6,17.8 C 393.3,36.03 357.6,45.96 314.8,47.75 L 300.6,51 286.5,47.74 C 243.6,45.95 208,36.03 179.7,17.8 l -70.76,34.6 c 21.38,19.05 33.36,42.31 30.72,69.21 -2.333,26.44 -17.5,46.66 -36.55,55.99 -23.85,10.89 -50.67,11.92 -80.48,3.11 L 84.07,430.7 c 60.94,22.16 127.6,69.31 199.9,141.4 z" />
	<path id="boss-outline" fill="black" d="m 286.5,47.74 c -6.119,31.83 -12.23,63.66 -18.35,95.5 -22.33,4.231 -44.04,12.65 -62.66,25.81 -17.14,12.08 -31.51,27.95 -42.33,45.88 -8.826,14.5 -15.66,30.19 -20.48,46.45 -5.511,19.09 -7.559,39.29 -5.124,59.05 2.402,19.93 9.152,39.23 18.99,56.69 8.393,14.99 18.8,28.8 30.52,41.35 6.868,6.961 14.59,13.04 22.72,18.46 15.64,10.32 33.18,17.62 51.36,22.07 2.167,0.5355 4.342,1.042 6.528,1.496 5.459,37.19 10.92,74.39 16.38,111.6 l 16.62,16.86 16.62,-16.86 c 5.461,-37.19 10.92,-74.39 16.38,-111.6 20.97,-4.42 41.33,-12.36 59.12,-24.41 10.21,-6.871 19.68,-14.93 27.58,-24.39 14.8,-17.21 27.33,-36.61 35.27,-57.95 7.531,-20.24 10.62,-42.19 8.507,-63.71 -1.742,-18.54 -7.074,-36.63 -14.7,-53.59 -8.765,-19.68 -20.76,-38.08 -36.29,-53.09 -13.69,-13.25 -30.02,-23.74 -47.72,-30.79 -10.4,-4.178 -21.24,-7.252 -32.25,-9.345 -6.113,-31.83 -12.23,-63.66 -18.34,-95.49 L 300.6,48.13 Z m 50.71,169.3 c 0.3508,0.1483 0.7017,0.2967 1.053,0.445 6.582,2.846 12.91,6.298 18.79,10.41 1.094,0.7684 2.307,1.654 3.416,2.511 9.321,7.194 17.25,16.2 23.17,26.37 1.89,3.128 3.371,6.572 4.637,9.937 1.618,4.19 2.992,8.475 4.073,12.84 0.2717,1.12 0.5735,2.413 0.8247,3.607 0.7843,3.735 1.35,7.516 1.674,11.32 0.0245,0.3134 0.066,0.9309 0.0972,1.361 0.8123,11.79 -0.9102,23.72 -4.833,34.86 -0.497,1.431 -0.9963,2.752 -1.569,4.192 -0.7856,1.959 -1.716,4.083 -2.675,6.075 -5.532,11.62 -13.15,22.34 -22.88,30.81 -7.073,6.2 -15.15,11.22 -23.75,15.01 -0.5926,0.2583 -1.362,0.5978 -2.031,0.8703 1.025,-56.87 1.024,-113.8 0.003,-170.6 z m -73.09,0.0197 c -0.0278,1.589 -0.0557,3.178 -0.0835,4.767 -0.8993,55.28 -0.9092,110.6 0.0987,165.8 -5.087,-2.131 -10.01,-4.666 -14.68,-7.595 -1.18,-0.7483 -2.48,-1.61 -3.674,-2.451 -5.006,-3.523 -9.647,-7.566 -13.81,-12.05 -0.9162,-0.9857 -1.919,-2.118 -2.828,-3.196 -4.005,-4.768 -7.579,-10.01 -10.58,-15.4 -2.97,-5.334 -5.524,-11.07 -7.551,-16.95 -0.3829,-1.094 -0.735,-2.185 -1.048,-3.237 -1.53,-5.071 -2.633,-10.39 -3.221,-15.58 -0.1539,-1.361 -0.2866,-2.886 -0.3675,-4.152 -0.0544,-1.068 -0.1179,-2.054 -0.1352,-3.042 -0.2107,-7.186 0.5586,-14.51 2.058,-21.45 1.655,-7.621 4.193,-15.04 7.419,-22.14 1.943,-3.938 4.379,-7.61 6.909,-11.19 1.441,-1.995 3.006,-3.985 4.565,-5.799 8.303,-9.72 18.67,-17.62 30.13,-23.27 2.233,-1.111 4.502,-2.145 6.801,-3.112 z" />
	<path id="boss" fill="white" d="m 280,155.4 c -57.54,8.035 -97.2,39.79 -119,95.26 -21.77,55.47 -9.85,108.1 35.77,157.9 21.51,21.25 49.25,34.6 83.2,40.05 L 300.6,589 321.2,448.6 c 33.96,-5.443 61.69,-18.79 83.2,-40.05 45.62,-49.77 57.54,-102.4 35.77,-157.9 -21.77,-55.47 -61.43,-87.22 -119,-95.26 L 300.6,48.13 Z m -1.555,41.99 c -1.555,69.98 -1.555,139.8 0,209.6 -34.99,-8.554 -60.01,-28.12 -75.04,-58.71 -15.03,-30.59 -15.03,-62.21 0,-94.87 15.29,-28.25 40.31,-46.92 75.04,-55.99 z m 44.32,0 c 34.73,9.072 59.75,27.74 75.04,55.99 15.03,32.66 15.03,64.28 0,94.87 -15.03,30.59 -40.05,50.16 -75.04,58.71 1.555,-69.73 1.555,-139.6 0,-209.6 z" />
</svg> 