<?xml version="1.0" encoding="UTF-8" standalone="no"?> 
<svg xmlns="http://www.w3.org/2000/svg" version="1.1" width="600" height="601.42609">
	<defs>
		<linearGradient id="gradient-body" x1="0" y1="0" x2="0.5" y2="0" spreadMethod="reflect">
			<stop offset="0" stop-color="#612c75" />
			<stop offset="0.9" stop-color="#bf99c3" />
		</linearGradient>
	</defs>
	<path id="outline" fill="black" d="m 289,0 -6.49,121 c -67.8,8.65 -116,44 -145,106 -38.9,99.5 8.65,167 30.3,190 26,30.3 62.7,54.1 115,60.6 l 4.33,123 C 173,587 91.7,537 42.6,452 -48.2,288 21,141 112,64.9 165,21.6 224,0 289,0 Z m -8.65,154 c -2.89,86.5 -2.89,184 0,292 -49,-10.1 -84.4,-33.9 -106,-71.4 -26,-38.9 -23.8,-110 0,-149 27.4,-43.3 62.7,-67.1 106,-71.4 z M 311,0 l 6.49,121 c 67.8,8.65 116,44 145,106 38.9,99.5 -8.65,167 -30.3,190 -26,30.3 -62.7,54.1 -115,60.6 l -4.33,123 C 427,587 508,537 557,452 648,288 579,141 488,64.9 435,21.6 376,0 311,0 Z m 8.65,154 c 2.89,86.5 2.89,184 0,292 49,-10.1 84.4,-33.9 106,-71.4 26,-38.9 23.8,-110 0,-149 -27.4,-43.3 -62.7,-67.1 -106,-71.4 z" />
	<path id="body" fill="url(#gradient-body)" d="m 339,102 c 56.1,14.7 94.8,38.5 125,82.8 55.4,86.8 43.7,189 -25.9,259 -26.9,27 -61.8,45.7 -99.1,53.4 0.166,2.5 -0.269,4.97 -0.25,7.46 -0.821,23.5 -1.64,46.9 -2.46,70.4 C 412,561 473,539 525,467 591,377 596,247 542,163 483,69 407,31.3 335,23.5 c 1.4,26.1 2.8,52.3 4.2,78.4 z M 265,23.6 C 203,29.6 145,60.7 104,103 54.3,155 23.9,221 22.5,292 c -0.433,84.1 36.6,169 101,222 0.855,0.693 2.01,1.61 2.98,2.39 44.4,32.3 84.9,48.6 135,58.5 0.43,-0.0857 1.8,0.667 1.89,0.0974 -0.861,-24.3 -1.71,-48.7 -2.57,-73.1 -0.0525,-1.5 -0.105,-2.99 -0.157,-4.49 C 206,482 165,455 135,412 85.3,333 91.1,241 146,171 c 34.7,-38.3 68.9,-59.4 115,-69.1 1.4,-26.1 2.8,-52.3 4.2,-78.4 -0.229,0.021 -0.458,0.0419 -0.687,0.0629 z M 204,222 c -36.7,48.5 -31.4,97.7 -16.4,130 14.7,32.5 36.8,51.4 69.5,64 -1.74,-78 -2.08,-156 -0.126,-234 -24.3,10.4 -40.8,24.8 -53,40.2 z m 138,-35.9 c 1.78,76.6 1.47,153 -0.239,230 34.5,-15.3 61,-38.2 72.7,-72 13.7,-41.3 7.35,-81.8 -9.02,-107 -16.4,-25.1 -39.5,-46.4 -63.6,-55.2 0.0385,1.49 0.0777,3.01 0.111,4.28 z"  />
</svg> 