<?xml version="1.0" encoding="UTF-8"?>
<svg width="101px" height="102px" viewBox="0 0 101 102" version="1.1" xmlns="http://www.w3.org/2000/svg" xmlns:xlink="http://www.w3.org/1999/xlink">
    <g stroke="none" stroke-width="1" fill="none" fill-rule="evenodd">
        <g id="pip-wm">
            <rect id="Rectangle" x="0.0328889333" y="0" width="100" height="100"></rect>
            <g id="Rings" transform="translate(8.489889, 12.400000)" fill="#000000" stroke="#000000" stroke-width="0.5">
                <g id="Group" transform="translate(0.084768, 0.081021)">
                    <ellipse id="Oval" cx="43.1814699" cy="43.6119418" rx="43.1295111" ry="43.5380251"></ellipse>
                </g>
                <g id="Group" transform="translate(2.868012, 3.080073)">
                    <ellipse id="Oval" cx="40.3037141" cy="40.5887495" rx="40.255218" ry="40.5199568"></ellipse>
                </g>
            </g>
            <g id="Rings1" transform="translate(8.489889, 12.400000)" stroke="#000000" stroke-width="0.5">
                <g id="Group" transform="translate(0.084768, 0.081021)" fill="#000000">
                    <ellipse id="Oval" cx="43.1814699" cy="43.6119418" rx="43.1295111" ry="43.5380251"></ellipse>
                </g>
                <g id="Group" transform="translate(2.868012, 3.080073)" fill="#FFFFFF">
                    <ellipse id="Oval" cx="40.3037141" cy="40.5887495" rx="40.255218" ry="40.5199568"></ellipse>
                </g>
            </g>
            <g id="Head" transform="translate(20.789889, 0.300000)" fill="#000000">
                <path d="M55.6225,67.4052 C55.6225,67.4052 52.9183,72.0122 49.6634,74.8666 C49.6634,74.8666 51.9669,80.1747 43.504,86.0837 C35.041,91.9927 29.9833,91.9927 24.1745,87.4858 C24.1745,87.4858 7.3988,85.3839 2.3411,70.6601 C2.3411,70.6601 1.2716,67.7951 1.1237,66.5528 C1.1237,66.5528 -0.2836,61.8719 0.2506,54.1637 C0.2506,54.1637 0.3651,49.5464 1.6243,44.7384 C2.8835,39.9305 3.0743,38.7857 3.9138,37.1831 C2.6953,37.3981 -1.1441,30.4548 0.4032,25.0869 C0.4032,25.0869 0.2887,24.1153 1.5098,21.1771 C1.5098,21.1771 0.7466,15.4915 3.5704,11.5231 C3.5704,11.5231 4.4098,8.915 10.7441,5.1888 C10.7441,5.1888 10.1336,8.9035 10.4007,11.2693 C10.4007,11.2693 10.7441,14.4746 12.9573,14.0167 C12.9573,14.0167 15.3613,13.8259 18.8719,8.5982 C18.8719,8.5982 21.0851,5.6219 26.1983,5.2021 C26.1983,5.2021 29.0602,5.5456 30.1668,6.3087 C30.1668,6.3087 34.0207,-0.0256 39.2484,0.0501144021 C39.2484,0.0501144021 44.6288,-0.1019 47.9486,5.9272 C47.9486,5.9272 53.4434,5.2785 57.1447,8.293 C57.1447,8.293 60.4263,10.5443 61.8,14.9325 C61.8,14.9325 68.4014,17.6418 69.737,24.5103 C69.737,24.5103 70.7673,29.0893 69.3172,35.7288 C67.8672,42.3684 65.2725,48.8935 62.6014,52.9001 C62.6014,52.9001 65.9151,59.6512 63.0593,63.241 C60.1852,66.8539 55.832,67.6147 55.6225,67.4052 Z" id="Path"></path>
            </g>
            <g id="Hair" transform="translate(24.089889, 3.400000)" fill="#FFFFFF">
                <path d="M5.517,23.913 C5.517,23.913 1.8666,31.1043 1.9396,31.1043 C1.9396,31.1043 -0.3237,29.3521 0.0414,23.1829 C0.0414,23.1829 0.1021,20.1043 1.4162,18.4251 C1.4162,18.4251 0.4901,15.3148 1.8727,12.2229 C1.8727,12.2229 2.1992,10.6098 4.0236,8.5357 C4.0236,8.5357 4.9262,13.2023 7.6532,13.7017 C7.6532,13.7017 9.8311,15.0537 13.0304,12.7606 C16.3527,10.3793 17.6394,7.4603 18.4651,7.1722 C18.4651,7.1722 20.0015,5.3286 22.498,5.3094 C22.498,5.3094 25.3594,5.0022 27.7215,7.7868 C27.7215,7.7868 29.7956,3.5427 32.4842,1.5454 C32.4842,1.5454 34.4238,-0.375 36.8051,0.1627 C36.8051,0.1627 39.7708,0.2079 42.9312,6.116 C42.9312,6.116 48.8757,4.8418 52.0449,7.8185 C52.0449,7.8185 54.6189,8.9191 55.9439,14.2519 C55.9439,14.2519 60.5529,15.7245 62.0701,19.1429 C62.0701,19.1429 63.1839,20.3143 63.6064,24.1167 C63.6064,24.1167 63.8753,29.5761 62.7806,33.2003 C61.686,36.8245 60.9754,39.0906 60.9754,39.0906 C60.9754,39.0906 58.653,35.0385 53.6586,31.1017 C53.6586,31.1017 56.7877,28.8548 57.3638,25.8013 C57.3638,25.8013 58.4008,21.0031 52.2363,19.7136 C52.2363,19.7136 49.3941,19.1155 45.7261,19.7492 C42.0581,20.383 42.3078,20.4022 42.3078,20.4022 C42.3078,20.4022 39.7728,16.1595 34.3188,12.8741 C34.3188,12.8741 31.515,15.9646 29.3834,16.2334 C29.3834,16.2334 27.1961,16.848 26.4664,16.2526 L24.6996,15.6765 L23.3169,15.1196 C23.3169,15.1196 20.7435,14.2938 19.2072,14.2554 C19.2072,14.2554 16.269,13.7561 13.6956,17.3857 C13.6956,17.3857 12.5241,19.2869 9.9316,21.9563 C9.9316,21.9563 8.3232,23.7957 5.517,23.913 Z" id="Path"></path>
            </g>
            <g id="Face" transform="translate(23.989889, 19.900000)" fill="#FFFFFF">
                <path d="M21.439,0.904 C21.439,0.904 24.807,2.4135 26.7878,2.6526 C28.7686,2.8916 30.4957,2.4193 30.4957,2.4193 C30.4957,2.4193 31.7551,2.3115 34.7216,0.0032 C34.7216,0.0032 37.4552,1.8695 38.6254,3.5632 C39.7956,5.2569 39.4107,4.3947 41.1198,7.2124 C41.1198,7.2124 45.7236,5.6727 49.3111,5.842 C52.8987,6.0114 53.5762,6.6273 53.5762,6.6273 C53.5762,6.6273 54.6078,7.2432 54.6694,8.0284 C54.6694,8.0284 54.962,9.0447 54.2537,10.0301 C53.5454,11.0155 53.2067,11.3081 53.2067,11.3081 L51.8671,12.5091 L48.4181,14.7263 L50.0964,15.6655 C50.0964,15.6655 52.7909,17.2668 54.9466,19.4224 C57.1022,21.5781 57.2254,21.9014 57.2254,21.9014 L58.7035,24.057 L59.7813,25.8277 L59.1962,27.0287 C59.1962,27.0287 56.196,23.3876 50.4198,19.2685 C50.4198,19.2685 53.6818,23.4485 54.3438,24.5879 C54.8701,25.4936 56.1915,27.575 56.1915,27.575 C56.1915,27.575 57.1,29.0994 57.3001,29.9308 C57.3001,29.9308 52.2169,25.6833 50.8486,25.4964 C50.8486,25.4964 54.2493,29.6493 55.3013,31.3807 C56.3533,33.1121 57.9094,35.9613 58.0409,37.4735 C58.1724,38.9858 58.5771,40.3872 57.2738,41.9884 C56.5067,42.9308 55.7177,43.6321 53.4603,44.443 C51.2029,45.254 50.4796,45.0129 50.4796,45.0129 C50.4796,45.0129 48.0546,49.5522 44.9786,52.4645 C44.4046,53.008 43.5321,54.4371 41.713,56.0589 C39.8939,57.6807 34.9024,61.7298 34.9024,61.7298 C34.9024,61.7298 40.425,60.3242 42.2585,58.8562 C42.2585,58.8562 42.8195,59.9401 41.648,61.2791 C40.4764,62.618 38.2855,64.5503 36.0641,65.7675 C33.8427,66.9847 31.1497,67.9888 29.2174,67.928 C27.2851,67.8671 26.1896,67.8063 25.9462,67.365 C25.9462,67.365 29.902,65.3262 31.1801,64.0482 C31.1801,64.0482 27.5392,65.7141 23.2531,65.1893 C22.5076,65.098 17.8408,64.192 15.5379,63.2902 C15.8845,63.3769 12.9333,62.3944 11.6766,61.4193 C10.4199,60.4443 8.3398,59.8593 5.2197,55.7424 C2.0995,51.6256 1.0378,47.6914 0.5612,44.562 C0.0845,41.4325 -0.2189,35.0139 0.4745,31.0321 C1.1678,27.0504 2.5112,21.5035 2.9879,20.3984 C3.4646,19.2934 5.5664,12.6532 7.3214,10.1497 C7.3214,10.1497 9.9649,9.3796 11.5033,7.9062 C13.0417,6.4329 13.4317,6.1078 14.6667,4.5478 C15.9018,2.9877 15.8151,2.8577 15.8151,2.8577 L16.5518,1.926 L17.2452,1.2543 C17.2452,1.2543 18.5692,-0.0096 21.439,0.904 Z" id="Path"></path>
            </g>
            <g id="Eyes--Nose--Brows" transform="translate(30.689889, 28.400000)" fill="#000000">
                <g id="Group" transform="translate(4.084484, 13.500957) rotate(5.172192) translate(-4.084484, -13.500957) translate(1.584484, 9.500957)">
                    <ellipse id="Oval" cx="2.23459501" cy="3.95829759" rx="2.21715775" ry="3.92205901"></ellipse>
                </g>
                <path d="M0.0492,7.6459 C0.0492,7.6459 -0.0461,6.6171 2.1829,4.7502 C4.4118,2.8832 5.5739,3.1309 5.5739,3.1309 C5.5739,3.1309 6.5836,2.8642 6.8884,3.8738 C7.1932,4.8835 6.5074,5.6837 6.5074,5.6837 L5.6882,6.4647 L4.8119,6.8267 L4.2213,6.922 C4.2213,6.922 1.1541,7.0553 0.5636,7.8745 C0.5636,7.8745 0.009,8.0118 0.0492,7.6459 Z" id="Path"></path>
                <path d="M10.2429,22.3433 C10.2429,22.3433 11.7265,24.0951 13.2281,25.0782 L10.7613,27.6701 C10.7613,27.6701 8.938,26.1507 8.0084,24.5062 C7.0789,22.8617 7.2577,23.0047 7.2577,23.0047 C7.2577,23.0047 6.9219,22.2195 7.1326,21.5031 C7.2219,21.1993 9.8717,18.7377 11.5243,16.6608 C13.1768,14.5838 13.7606,12.1464 14.2174,11.132 C14.6743,10.1175 14.6616,10.1937 14.8647,10.0921 C15.0677,9.9906 15.2061,10.3949 15.2005,10.4832 C15.195,10.5714 15.441,12.6751 15.0034,14.0069 C14.5658,15.3388 14.4136,15.7954 13.5003,17.6219 C12.5871,19.4484 11.1332,21.4519 10.2429,22.3433 Z" id="Path"></path>
                <path d="M26.4993,4.0863 C26.4993,4.0863 26.2113,2.7991 28.4131,0.0384 C28.4131,0.0384 31.5804,1.6643 33.2233,5.3735 C34.8662,9.0827 33.8161,9.7602 33.8161,9.7602 C33.8161,9.7602 32.1214,7.1564 29.9879,5.8982 C27.8544,4.64 27.4417,4.3897 26.4993,4.0863 Z" id="Path"></path>
                <path d="M22.4069,13.4274 C22.4069,13.4274 23.3852,11.5415 26.2416,11.1684 C26.6603,11.1137 27.6364,11.1127 27.6364,11.1127 C27.6364,11.1127 30.1099,11.2455 30.9013,12.3774 C31.6927,13.5092 31.6927,14.0154 31.6927,14.4571 C31.6927,14.8988 31.7203,15.6994 31.3706,16.2331 C31.021,16.7668 30.8331,16.7721 30.5843,16.7826 C30.4951,16.7863 30.333,16.6858 30.2516,16.5951 C30.1449,16.476 30.0442,16.3584 30.044,16.3583 C30.0065,16.3375 29.3277,15.5521 29.3277,15.5521 C29.3277,15.5521 28.6008,14.5675 27.8186,14.3282 C27.8186,14.3282 26.2634,13.6565 25.2051,13.5645 C24.1469,13.4724 23.897,13.4284 22.4069,13.4274 Z" id="Path"></path>
            </g>
            <g id="Mund" transform="translate(27.789889, 54.600000)">
                <path d="M30.3662,8.7002 L30.3627,12.732 L33.5483,5.8999 L27.0763,0.041 L25.9522,1.4546 L26.923,3.6347 C26.923,3.6347 18.263,10.7484 3.4749,4.5938 L3.6488,2.151 L0.0366,6.1702 C0.0366,6.1702 1.2271,10.3377 2.499,11.8682 C2.499,11.8682 3.2723,12.7577 3.6081,11.6385 C3.6081,11.6385 3.603,10.9696 3.4504,10.7254 L3.7429,10.7278 C3.7429,10.7278 4.4113,12.2447 9.4835,13.9837 C14.5557,15.7227 19.7859,14.0232 19.7859,14.0232 C19.7859,14.0232 25.4343,12.6359 30.3662,8.7002 Z" id="Path" fill="#000000"></path>
                <path d="M28.0693,4.9441 L29.8675,7.0683 C29.8675,7.0683 24.2179,12.6255 14.7348,12.9625 C5.8478,13.2783 3.3438,7.0981 3.0864,6.9446 C3.0864,6.9446 2.826,6.6955 3.3738,6.9257 C3.9216,7.1559 5.9831,8.0628 7.6029,8.3318 C9.2228,8.6007 10.8426,9.0744 12.1935,9.1193 C13.5444,9.1641 16.6457,9.1992 16.6457,9.1992 C16.6457,9.1992 19.1733,9.1169 22.8061,7.7649 C26.4388,6.413 28.0693,4.9441 28.0693,4.9441 Z" id="Path" fill="#FFFFFF"></path>
            </g>
        </g>
    </g>
</svg>
