<?xml version="1.0" encoding="UTF-8" standalone="no"?>
<!DOCTYPE svg PUBLIC "-//W3C//DTD SVG 1.1//EN" "http://www.w3.org/Graphics/SVG/1.1/DTD/svg11.dtd">
<svg width="34" height="21" viewBox="0 0 34 21" version="1.1" xmlns="http://www.w3.org/2000/svg" xmlns:xlink="http://www.w3.org/1999/xlink" xml:space="preserve" xmlns:serif="http://www.serif.com/" style="fill-rule:evenodd;clip-rule:evenodd;stroke-linejoin:round;stroke-miterlimit:2;">
    <g transform="matrix(1,0,0,1,-529.723,-1058.9)">
        <path d="M546.336,1079.79C539.499,1079.8 535.025,1079.28 529.723,1077.64C532.428,1074.97 533.381,1070.55 531.398,1065.03L546.663,1058.9L561.928,1065.03C559.945,1070.55 560.898,1074.97 563.603,1077.64C558.217,1079.3 553.685,1079.82 546.663,1079.79L546.336,1079.79ZM546.672,1077.79L546.541,1077.79C546.465,1077.79 546.395,1077.8 546.331,1077.81L546.331,1077.79C540.944,1077.8 537.077,1077.47 533.053,1076.49C534.496,1073.81 534.936,1070.31 533.855,1066.19L546.663,1061.05L559.471,1066.19C558.39,1070.31 558.83,1073.81 560.272,1076.49C556.169,1077.49 552.228,1077.81 546.672,1077.79ZM547.353,1066.34C547.215,1066.37 547.119,1066.49 547.133,1066.63C547.146,1066.77 547.264,1066.88 547.405,1066.88L549.194,1066.88L549.194,1074.73L547.373,1075.63C547.26,1075.69 547.2,1075.82 547.229,1075.94C547.258,1076.07 547.368,1076.15 547.495,1076.15L553.641,1076.15C553.753,1076.15 553.853,1076.09 553.895,1075.98C553.936,1075.88 553.909,1075.76 553.828,1075.68L551.918,1073.88L551.918,1064.54C551.918,1064.43 551.851,1064.33 551.748,1064.29C551.644,1064.25 551.526,1064.27 551.449,1064.35C550.353,1065.49 549.198,1065.98 547.353,1066.34ZM543.007,1069.76L543.007,1065.74L541.077,1065.74L541.077,1069.76L537.016,1069.76L537.016,1071.4L541.077,1071.4L541.077,1075.41L543.007,1075.41L543.007,1071.4L547.007,1071.4L547.007,1069.76L543.007,1069.76Z"/>
    </g>
</svg>
