<?xml version="1.0" encoding="UTF-8" standalone="no"?>
<svg
   width="600"
   height="600"
   viewBox="0 0 600 600"
   version="1.1"
   xml:space="preserve"
   style="fill-rule:evenodd;clip-rule:evenodd;stroke-linejoin:round;stroke-miterlimit:2;"
   id="svg4960"
   sodipodi:docname="purpleg.svg"
   inkscape:version="1.2.2 (732a01da63, 2022-12-09)"
   xmlns:inkscape="http://www.inkscape.org/namespaces/inkscape"
   xmlns:sodipodi="http://sodipodi.sourceforge.net/DTD/sodipodi-0.dtd"
   xmlns="http://www.w3.org/2000/svg"
   xmlns:svg="http://www.w3.org/2000/svg"><defs
   id="defs4964">
        
        
        
    </defs><sodipodi:namedview
   id="namedview4962"
   pagecolor="#ffffff"
   bordercolor="#000000"
   borderopacity="0.25"
   inkscape:showpageshadow="2"
   inkscape:pageopacity="0.0"
   inkscape:pagecheckerboard="0"
   inkscape:deskcolor="#d1d1d1"
   showgrid="false"
   inkscape:zoom="0.18"
   inkscape:cx="308.33333"
   inkscape:cy="308.33333"
   inkscape:window-width="1920"
   inkscape:window-height="1051"
   inkscape:window-x="-9"
   inkscape:window-y="-9"
   inkscape:window-maximized="1"
   inkscape:current-layer="svg4960" />
    <circle
   cx="300"
   cy="300"
   r="300"
   style="fill:rgb(171,139,215);"
   id="circle4944" />
    <g
   transform="translate(-224.86,209.64)"
   id="g4948"
   style="fill:#9bd3ae;fill-opacity:1">
            <path
   d="m 737,-121.8 c 54.3,54.3 87.9,129.3 87.9,212.2 0,165.7 -134.3,300 -300,300 -82.8,0 -157.8,-33.6 -212.1,-87.9"
   style="fill:#9bd3ae;fill-rule:nonzero;fill-opacity:1"
   id="path4946" />
        </g><g
   transform="translate(-224.86,209.64)"
   id="g4952">
            <path
   d="m 762,196.1 c 0,4.5 -1.8,8.6 -5.3,12.3 -3.5,3.6 -7.5,5.4 -12.1,5.4 -7.2,0 -12.6,-3.4 -16,-10.2 l -16,-0.7 c -3.4,0 -10.1,1.5 -20.1,4.4 -10.7,2.9 -16.8,5.3 -18.4,7.1 -2.5,2.7 -4.5,9.1 -6.1,19.1 -1.4,8.2 -2,14.2 -2,18 0,6.1 1,10.6 2.9,13.4 1.9,2.8 5.9,5.2 11.9,7.1 6,1.9 9.7,3 11.1,3.2 0.9,0 2.4,-0.1 4.4,-0.3 h 4.1 c 2.9,0 6,0.5 9.2,1.4 4.5,1.4 6.5,3.2 5.8,5.4 -3.2,-0.4 -8.7,0.2 -16.7,2 l 9.5,4.8 c 0,2.7 -3.9,4.1 -11.6,4.1 -2.1,0 -4.8,-0.4 -8.3,-1.3 -3.5,-0.9 -5.9,-1.4 -7,-1.4 h -4.4 c -0.2,2.3 -0.9,5.7 -2,10.2 -3.9,-0.2 -8.4,-2.5 -13.6,-6.8 -5.2,-4.3 -8.5,-6.5 -9.9,-6.5 -1.4,0 -3.3,2.2 -5.8,6.5 -2.5,4.3 -3.7,7.2 -3.7,8.9 -2.9,-1.6 -5.4,-4.5 -7.5,-8.8 -0.9,-3 -1.9,-5.9 -3.1,-8.9 -2.3,0.2 -6.5,5 -12.6,14.3 H 617 c -0.5,-0.7 -2.2,-5.4 -5.1,-14.3 -7,-2.2 -13.6,-3.4 -19.7,-3.4 -2.9,0 -7.5,0.7 -13.6,2 l -9.5,-0.7 c 1.4,-1.4 5.3,-4 11.9,-7.8 7.7,-4.5 13.6,-6.8 17.7,-6.8 0.7,0 1.6,0.1 2.7,0.4 1.1,0.2 2,0.3 2.7,0.3 1.6,0 4.1,-0.9 7.7,-2.6 3.5,-1.7 5.6,-3.2 6.1,-4.6 0.6,-1.4 0.9,-4.9 0.9,-10.6 0,-12.9 -3.4,-22.6 -10.2,-28.9 -5.9,-5.7 -15.6,-9.7 -29.3,-12.3 -3.6,12.9 -13.8,19.4 -30.6,19.4 -5.5,0 -10.9,-3.3 -16.3,-9.9 -5.4,-6.6 -8.2,-12.6 -8.2,-18 0,-8.4 3.5,-15.3 10.5,-20.8 -5.7,-5.9 -8.5,-11.9 -8.5,-18 0,-5.7 1.8,-10.7 5.3,-15 3.5,-4.3 8.1,-6.8 13.8,-7.5 -0.4,-7.2 1.9,-12.3 7.1,-15 -2.5,-2.5 -3.7,-6.9 -3.7,-13.3 0,-7.5 2.5,-13.7 7.5,-18.7 5,-5 11.2,-7.5 18.7,-7.5 8.2,0 14.9,2.9 20.1,8.5 6.6,-22.5 20.8,-33.7 42.5,-33.7 11.3,0 21.3,4.5 29.9,13.6 3.2,3.4 4.8,5.2 4.8,5.4 -2.7,0 -1.3,-0.5 4.1,-1.5 5.5,-1 9.4,-1.5 11.9,-1.5 8.8,0 16.7,3.3 23.5,9.9 5.9,5.9 10,13.4 12.3,22.5 1.6,0.2 4.1,0.9 7.5,2 5,2.5 7.5,6.8 7.5,12.9 0,1.1 -0.9,3.3 -2.7,6.5 14.5,8.2 21.8,19.5 21.8,34 0,4.1 -1.6,9.8 -4.8,17 5.9,3.4 8.9,8.4 8.9,15 m -140.2,15 v -4.4 c 0,-5.2 -2.5,-10 -7.6,-14.3 -5.1,-4.3 -10.3,-6.5 -15.5,-6.5 -6.4,0 -12.3,1.5 -17.7,4.4 12,-0.7 25.6,6.2 40.8,20.8 m -6.1,-42.2 c -3.4,-3.9 -6.3,-7.8 -8.8,-11.9 -9.5,2.5 -14.3,5.3 -14.3,8.5 2.7,-0.2 6.7,0.3 11.9,1.5 5.2,1.3 9,1.9 11.2,1.9 M 636.7,158 v -15 c -5.5,-0.9 -8.8,-1.4 -9.9,-1.4 v 5.1 l 9.9,11.2 m 44.2,-9.5 c -2.7,-1.1 -7.8,-3.4 -15.3,-6.8 v 29.3 c 10.7,-6.1 15.8,-13.6 15.3,-22.5 m 18.7,40.2 -7.5,-9.2 c -4.5,3.2 -9.1,6.4 -13.8,9.7 -4.6,3.3 -8.7,7 -12.1,11.1 10.2,-5.5 21.3,-9.3 33.3,-11.6"
   style="fill:#00160b;fill-rule:nonzero"
   id="path4950" />
        </g><g
   transform="matrix(1.63436,0,0,1.67005,288.637,5.4622)"
   id="g4956">
            <path
   d="m -52.703,176.592 c -0.486,-0.084 -2.298,-0.329 -4.028,-0.545 -7.017,-0.876 -15.806,-3.768 -23.123,-7.609 -6.187,-3.247 -7.292,-4.451 -2.992,-3.259 13.726,3.806 31.992,-1.638 46.581,-13.883 7.952,-6.674 12.395,-13.069 14.397,-20.72 2.889,-11.042 1.786,-18.535 -3.828,-26.004 -2.158,-2.871 -4.536,-4.726 -8.818,-6.878 -2.944,-1.48 -3.404,-1.821 -2.869,-2.12 0.376,-0.211 1.525,-0.259 2.801,-0.119 6.941,0.763 12.701,3.823 18.424,9.789 6.269,6.534 10.745,15.449 12.162,24.222 0.539,3.34 0.457,10.031 -0.16,12.929 -2.764,12.992 -11.011,23.937 -22.266,29.548 -6.198,3.09 -12.223,4.492 -20.108,4.677 -2.91,0.069 -5.688,0.056 -6.173,-0.028 z M -81.631,150.64 c -3.6,-0.272 -5.224,-0.636 -9.372,-2.099 -14.745,-5.201 -24.403,-16.284 -27.726,-31.817 -1.001,-4.683 -1.103,-14.833 -0.201,-20.014 1.349,-7.751 3.902,-15.26 7.551,-22.212 3.247,-6.187 4.451,-7.292 3.259,-2.991 -3.22,11.61 0.112,26.467 8.965,39.979 7.095,10.827 15.772,18.179 24.399,20.67 11.477,3.314 19.559,2.276 27.243,-3.5 2.871,-2.158 4.726,-4.536 6.878,-8.818 1.515,-3.012 1.816,-3.413 2.134,-2.844 0.55,0.983 -0.282,6.53 -1.399,9.327 -1.685,4.219 -3.645,7.089 -7.512,10.995 -4.167,4.21 -7.63,6.681 -12.843,9.164 -7.076,3.37 -14.001,4.718 -21.376,4.16 z m 92.167,-8.334 c 0.095,-0.533 0.448,-2.16 0.784,-3.616 1.401,-6.054 0.603,-15.129 -1.999,-22.754 -4.635,-13.578 -15.351,-27.458 -25.688,-33.27 -4.794,-2.695 -12.937,-4.487 -19.151,-4.215 -6.597,0.289 -11.655,2.536 -16.486,7.323 -2.188,2.167 -3.03,3.348 -4.655,6.526 -1.8,3.522 -2.006,3.792 -2.225,2.92 -0.387,-1.541 0.429,-6.369 1.58,-9.354 4.234,-10.979 16.786,-20.598 30.736,-23.555 8.395,-1.779 16.814,-0.551 25.469,3.716 16.699,8.232 25.401,25.561 23.165,46.131 -1.094,10.068 -5.22,21.891 -10.582,30.325 -0.689,1.084 -1.157,0.998 -0.948,-0.177 z m -74.705,-26.445 c -6.168,-0.853 -12.234,-4.302 -17.6,-10.006 -5.99,-6.368 -10.091,-14.459 -11.697,-23.08 -0.89,-4.777 -0.572,-12.321 0.699,-16.58 3.798,-12.727 11.454,-21.948 22.571,-27.187 14.716,-6.935 34.473,-5.44 52.404,3.966 6.186,3.245 7.293,4.451 2.992,3.258 -9.684,-2.685 -21.143,-0.956 -32.974,4.974 -11.774,5.902 -22.232,15.581 -26.134,24.188 -1.309,2.888 -2.669,8.139 -3.171,12.252 -0.875,7.159 0.804,13.439 5.129,19.193 2.157,2.869 4.536,4.726 8.809,6.874 2.554,1.284 3.362,1.843 2.998,2.073 -0.501,0.318 -2.061,0.346 -4.026,0.075 z"
   style="fill:#211d15;fill-rule:nonzero"
   id="path4954" />
        </g>
</svg>
