<?xml version="1.0" encoding="UTF-8" standalone="no"?>
<svg
   width="600"
   height="600"
   version="1.1"
   id="svg787"
   sodipodi:docname="rg.svg"
   inkscape:version="1.2.2 (732a01da63, 2022-12-09)"
   xmlns:inkscape="http://www.inkscape.org/namespaces/inkscape"
   xmlns:sodipodi="http://sodipodi.sourceforge.net/DTD/sodipodi-0.dtd"
   xmlns="http://www.w3.org/2000/svg"
   xmlns:svg="http://www.w3.org/2000/svg">
  <defs
     id="defs791" />
  <sodipodi:namedview
     id="namedview789"
     pagecolor="#ffffff"
     bordercolor="#000000"
     borderopacity="0.25"
     inkscape:showpageshadow="2"
     inkscape:pageopacity="0.0"
     inkscape:pagecheckerboard="0"
     inkscape:deskcolor="#d1d1d1"
     showgrid="false"
     inkscape:zoom="0.50911688"
     inkscape:cx="741.48003"
     inkscape:cy="301.50247"
     inkscape:window-width="1920"
     inkscape:window-height="1051"
     inkscape:window-x="-9"
     inkscape:window-y="-9"
     inkscape:window-maximized="1"
     inkscape:current-layer="svg787" />
  <circle
     cx="300"
     cy="300"
     r="300"
     fill="#f9aa8f"
     id="circle777" />
  <path
     d="m 512.14,87.84 c 54.3,54.3 87.9,129.3 87.9,212.2 0,165.7 -134.3,300 -300,300 -82.8,0 -157.8,-33.6 -212.1,-87.9"
     fill="#a3c095"
     id="path779"
     style="fill:#9bd3ae;fill-opacity:1" />
  <path
     d="m 311.64,228.44 c -10.3,24.6 -30.8,36.9 -61.5,36.9 -5.6,0 -11.7,0.7 -18.3,2.1 -9.8,2.1 -14.7,5.1 -14.7,8.8 0,1.2 0.8,2.5 2.5,4 1.6,1.5 3,2.3 4.2,2.3 -5.9,0 -1.9,0.2 11.9,0.5 13.8,0.4 22.5,0.5 26,0.5 -20.4,11.9 -54.4,17.4 -102.2,16.5 -15.7,-0.2 -29.1,-7.1 -40.4,-20.7 -11,-12.9 -16.5,-27.3 -16.5,-43.2 0,-16.9 5.7,-31.2 17,-43 11.3,-11.8 25.5,-17.7 42.3,-17.7 3.7,0 8.7,0.8 14.9,2.4 6.2,1.6 10.4,2.5 12.5,2.5 8.7,0 19.4,-3.6 32.3,-10.7 12.9,-7.1 19,-10.7 18.3,-10.7 -2.3,24.6 -10.5,41.1 -24.6,49.5 -10.1,5.9 -15.1,11.6 -15.1,17.2 0,3.5 2.1,6.3 6.3,8.4 3.3,1.6 6.9,2.4 10.9,2.4 6.1,0 12.1,-3.7 17.9,-11.2 5.8,-7.5 8.4,-14.3 7.7,-20.4 -0.7,-7 -0.2,-15.5 1.4,-25.3 0.5,-2.8 2.2,-6.3 5.1,-10.4 2.9,-4.1 5.6,-6.6 7.9,-7.6 0,2.1 -0.8,5.6 -2.3,10.5 -1.5,4.9 -2.3,8.6 -2.3,10.9 0,5.2 1.4,9.1 4.2,11.9 4.2,-1.6 8,-6.9 11.2,-15.8 2.8,-6.8 4.4,-13.3 4.9,-19.7 -9.8,-0.4 -19.3,-4.9 -28.3,-13.3 -9,-8.4 -13.5,-17.6 -13.5,-27.4 0,-1.6 0.2,-3.3 0.7,-4.9 1.4,2.1 3.5,5.4 6.3,9.8 4,5.8 7,8.8 9.1,8.8 2.8,0 4.2,-2.9 4.2,-8.8 0,-7.5 -2,-14.3 -6,-20.4 -4.5,-7.3 -10.2,-10.9 -17.2,-10.9 -3.3,0 -8.2,1.8 -14.7,5.3 -6.6,3.5 -12.5,5.3 -17.9,5.3 -1.6,0 -8.9,-2.1 -21.8,-6.3 22.7,-3.7 34.1,-7.1 34.1,-10.2 0,-8 -15.6,-13.3 -46.7,-16.1 -3,-0.2 -8.7,-0.7 -16.8,-1.4 0.9,-1.2 7.6,-2.4 20,-3.9 10.5,-1.2 17.9,-1.8 22.1,-1.8 55.7,0 91.1,27.1 106,81.1 2.6,-2.1 3.9,-5.7 3.9,-10.7 0,-6.4 -1.9,-14.5 -5.6,-24.2 -1.4,-3.8 -3.6,-9.5 -6.7,-17.1 19.2,24.5 28.8,47.6 28.8,69.5 0,11.5 -2.7,22 -8.1,31.4 -3.5,6.4 -10.1,14.5 -19.7,24.4 -9.6,9.9 -16.1,17.5 -19.7,22.9 12.9,-3.5 21.3,-6.2 25.3,-8.1 8.9,-4 17,-10 24.2,-17.9 0,3.1 -1.3,7.6 -3.9,13.7 m -153.1,-138 c 0,4.2 -2.3,6.9 -7,8.1 l -9.1,1.4 c -3.3,1.6 -8.1,8.1 -14.4,19.3 -0.7,-3.5 -1.8,-8.4 -3.2,-14.7 -2.1,0.2 -5.6,2.1 -10.5,5.6 -2.1,1.6 -5.5,4.1 -10.2,7.4 1.4,-8.4 6.1,-17 14.1,-25.6 8.4,-9.6 16.6,-14.4 24.6,-14.4 10.5,0 15.8,4.3 15.8,13 m 61.1,32.3 c 0,4 -2.2,7.3 -6.5,10 -4.3,2.7 -8.6,4 -12.8,4 -5.6,0 -10.7,-3.1 -15.1,-9.5 -5.4,-7.7 -10.9,-12.7 -16.5,-15.1 1.2,-1.2 2.6,-1.8 4.2,-1.8 2.1,0 5.7,1.6 10.7,4.9 5,3.3 8.2,4.9 9.7,4.9 1.2,0 3.1,-1.6 5.8,-4.9 2.7,-3.3 5.7,-4.9 9,-4.9 7.7,0 11.6,4.1 11.6,12.3"
     fill="#200000"
     id="path781" />
  <path
     d="m 537.14,405.74 c 0,4.5 -1.8,8.6 -5.3,12.3 -3.5,3.6 -7.5,5.4 -12.1,5.4 -7.2,0 -12.6,-3.4 -16,-10.2 l -16,-0.7 c -3.4,0 -10.1,1.5 -20.1,4.4 -10.7,2.9 -16.8,5.3 -18.4,7.1 -2.5,2.7 -4.5,9.1 -6.1,19.1 -1.4,8.2 -2,14.2 -2,18 0,6.1 1,10.6 2.9,13.4 1.9,2.8 5.9,5.2 11.9,7.1 6,1.9 9.7,3 11.1,3.2 0.9,0 2.4,-0.1 4.4,-0.3 h 4.1 c 2.9,0 6,0.5 9.2,1.4 4.5,1.4 6.5,3.2 5.8,5.4 -3.2,-0.4 -8.7,0.2 -16.7,2 l 9.5,4.8 c 0,2.7 -3.9,4.1 -11.6,4.1 -2.1,0 -4.8,-0.4 -8.3,-1.3 -3.5,-0.9 -5.9,-1.4 -7,-1.4 h -4.4 c -0.2,2.3 -0.9,5.7 -2,10.2 -3.9,-0.2 -8.4,-2.5 -13.6,-6.8 -5.2,-4.3 -8.5,-6.5 -9.9,-6.5 -1.4,0 -3.3,2.2 -5.8,6.5 -2.5,4.3 -3.7,7.2 -3.7,8.9 -2.9,-1.6 -5.4,-4.5 -7.5,-8.8 -0.9,-3 -1.9,-5.9 -3.1,-8.9 -2.3,0.2 -6.5,5 -12.6,14.3 h -1.7 c -0.5,-0.7 -2.2,-5.4 -5.1,-14.3 -7,-2.2 -13.6,-3.4 -19.7,-3.4 -2.9,0 -7.5,0.7 -13.6,2 l -9.5,-0.7 c 1.4,-1.4 5.3,-4 11.9,-7.8 7.7,-4.5 13.6,-6.8 17.7,-6.8 0.7,0 1.6,0.1 2.7,0.4 1.1,0.2 2,0.3 2.7,0.3 1.6,0 4.1,-0.9 7.7,-2.6 3.5,-1.7 5.6,-3.2 6.1,-4.6 0.6,-1.4 0.9,-4.9 0.9,-10.6 0,-12.9 -3.4,-22.6 -10.2,-28.9 -5.9,-5.7 -15.6,-9.7 -29.3,-12.3 -3.6,12.9 -13.8,19.4 -30.6,19.4 -5.5,0 -10.9,-3.3 -16.3,-9.9 -5.4,-6.6 -8.2,-12.6 -8.2,-18 0,-8.4 3.5,-15.3 10.5,-20.8 -5.7,-5.9 -8.5,-11.9 -8.5,-18 0,-5.7 1.8,-10.7 5.3,-15 3.5,-4.3 8.1,-6.8 13.8,-7.5 -0.4,-7.2 1.9,-12.3 7.1,-15 -2.5,-2.5 -3.7,-6.9 -3.7,-13.3 0,-7.5 2.5,-13.7 7.5,-18.7 5,-5 11.2,-7.5 18.7,-7.5 8.2,0 14.9,2.9 20.1,8.5 6.6,-22.5 20.8,-33.7 42.5,-33.7 11.3,0 21.3,4.5 29.9,13.6 3.2,3.4 4.8,5.2 4.8,5.4 -2.7,0 -1.3,-0.5 4.1,-1.5 5.5,-1 9.4,-1.5 11.9,-1.5 8.8,0 16.7,3.3 23.5,9.9 5.9,5.9 10,13.4 12.3,22.5 1.6,0.2 4.1,0.9 7.5,2 5,2.5 7.5,6.8 7.5,12.9 0,1.1 -0.9,3.3 -2.7,6.5 14.5,8.2 21.8,19.5 21.8,34 0,4.1 -1.6,9.8 -4.8,17 5.9,3.4 8.9,8.4 8.9,15 m -140.2,15 v -4.4 c 0,-5.2 -2.5,-10 -7.6,-14.3 -5.1,-4.3 -10.3,-6.5 -15.5,-6.5 -6.4,0 -12.3,1.5 -17.7,4.4 12,-0.7 25.6,6.2 40.8,20.8 m -6.1,-42.2 c -3.4,-3.9 -6.3,-7.8 -8.8,-11.9 -9.5,2.5 -14.3,5.3 -14.3,8.5 2.7,-0.2 6.7,0.3 11.9,1.5 5.2,1.3 9,1.9 11.2,1.9 m 20.8,-10.6 v -15 c -5.5,-0.9 -8.8,-1.4 -9.9,-1.4 v 5.1 l 9.9,11.2 m 44.2,-9.5 c -2.7,-1.1 -7.8,-3.4 -15.3,-6.8 v 29.3 c 10.7,-6.1 15.8,-13.6 15.3,-22.5 m 18.7,40.2 -7.5,-9.2 c -4.5,3.2 -9.1,6.4 -13.8,9.7 -4.6,3.3 -8.7,7 -12.1,11.1 10.2,-5.5 21.3,-9.3 33.3,-11.6"
     fill="#00160b"
     id="path783"
     style="fill:#00160b;fill-opacity:1" />
</svg>
