<?xml version="1.0" encoding="UTF-8" standalone="no"?>
<svg
   width="714"
   height="714"
   viewBox="0 0 714 714"
   version="1.1"
   xml:space="preserve"
   style="fill-rule:evenodd;clip-rule:evenodd;stroke-linejoin:round;stroke-miterlimit:2;"
   id="svg3"
   sodipodi:docname="wanted1.svg"
   inkscape:version="1.3.2 (091e20e, 2023-11-25, custom)"
   xmlns:inkscape="http://www.inkscape.org/namespaces/inkscape"
   xmlns:sodipodi="http://sodipodi.sourceforge.net/DTD/sodipodi-0.dtd"
   xmlns:xlink="http://www.w3.org/1999/xlink"
   xmlns="http://www.w3.org/2000/svg"
   xmlns:svg="http://www.w3.org/2000/svg"><defs
   id="defs3"><linearGradient
     id="swatch5"
     inkscape:swatch="solid"><stop
       style="stop-color:#000000;stop-opacity:1;"
       offset="0"
       id="stop5" /></linearGradient><linearGradient
     id="swatch4"
     inkscape:swatch="solid"><stop
       style="stop-color:#d6b793;stop-opacity:1;"
       offset="0"
       id="stop4" /></linearGradient><linearGradient
     id="swatch3"
     inkscape:swatch="solid"><stop
       style="stop-color:#594c42;stop-opacity:1;"
       offset="0"
       id="stop3" /></linearGradient><linearGradient
     inkscape:collect="always"
     xlink:href="#swatch3"
     id="linearGradient3"
     x1="-57"
     y1="300"
     x2="657"
     y2="300"
     gradientUnits="userSpaceOnUse" /><linearGradient
     inkscape:collect="always"
     xlink:href="#swatch4"
     id="linearGradient4"
     x1="0"
     y1="300"
     x2="600"
     y2="300"
     gradientUnits="userSpaceOnUse" /><linearGradient
     inkscape:collect="always"
     xlink:href="#swatch5"
     id="linearGradient5"
     x1="193"
     y1="287.5"
     x2="411"
     y2="287.5"
     gradientUnits="userSpaceOnUse" /></defs><sodipodi:namedview
   id="namedview3"
   pagecolor="#ffffff"
   bordercolor="#000000"
   borderopacity="0.25"
   inkscape:showpageshadow="2"
   inkscape:pageopacity="0.0"
   inkscape:pagecheckerboard="0"
   inkscape:deskcolor="#d1d1d1"
   inkscape:zoom="1.1386555"
   inkscape:cx="356.56089"
   inkscape:cy="357"
   inkscape:window-width="3440"
   inkscape:window-height="1369"
   inkscape:window-x="1912"
   inkscape:window-y="482"
   inkscape:window-maximized="1"
   inkscape:current-layer="svg3" />
    <g
   transform="matrix(1,0,0,1,57,57)"
   id="g1">
        <circle
   cx="300"
   cy="300"
   r="300"
   style="fill:url(#linearGradient4);fill-opacity:1"
   id="circle1" />
    </g>
    <g
   transform="matrix(1,0,0,1,57,57)"
   id="g2">
        <path
   d="M300,-57C102.966,-57 -57,102.966 -57,300C-57,497.034 102.966,657 300,657C497.034,657 657,497.034 657,300C657,102.966 497.034,-57 300,-57ZM300,0C465.575,0 600,134.425 600,300C600,465.575 465.575,600 300,600C134.425,600 0,465.575 0,300C0,134.425 134.425,0 300,0Z"
   style="fill:url(#linearGradient3);fill-opacity:1"
   id="path1" />
    </g>
    <g
   transform="matrix(1,0,0,1,57,57)"
   id="g3">
        <path
   d="M347,52L347,425C347,474 376,473 395,473L411,473L411,523L193,523L193,473L213,473C231,473 260,473 260,425L260,186C260,139 245,135 213,136L195,136L195,85L215,85C251,85 272,53 308,52L347,52Z"
   style="fill:url(#linearGradient5);fill-rule:nonzero"
   id="path2" />
    </g>
</svg>
