<?xml version="1.0" encoding="UTF-8" standalone="no"?><!DOCTYPE svg PUBLIC "-//W3C//DTD SVG 1.1//EN" "http://www.w3.org/Graphics/SVG/1.1/DTD/svg11.dtd"><svg width="180" height="252" viewBox="0 0 180 252" version="1.1" xmlns="http://www.w3.org/2000/svg" xmlns:xlink="http://www.w3.org/1999/xlink" xml:space="preserve" xmlns:serif="http://www.serif.com/" style="fill-rule:evenodd;clip-rule:evenodd;stroke-linejoin:round;stroke-miterlimit:2;"><path id="frame-mask" serif:id="frame mask" d="M89.907,229.436c-3.925,-0.137 -7.533,1.632 -10.947,4.564l-56.64,0l-0.96,-1.2l-6.12,-0l-6.24,-9l0,-76.32l-3.6,-6.6l3.24,-4.68l18.12,-0l4.547,4.547l-15.107,0.493l-2.28,3.48l0,79.92l2.52,3.6l7.68,0l1.8,2.52l52.92,0l2.04,-1.68l18.24,0l2.04,1.68l52.92,0l1.8,-2.52l7.68,0l2.52,-3.6l-0,-79.92l-2.28,-3.48l-15.107,-0.493l4.547,-4.547l18.12,0l3.24,4.68l-3.6,6.6l-0,76.32l-6.24,9l-6.12,-0l-0.96,1.2l-56.64,0c-3.441,-2.955 -7.078,-4.729 -11.04,-4.56l-0.093,-0.004Zm-42.747,-199.916l-3.72,2.76l-25.68,-0l-1.08,-2.64l-5.4,-0l-1.68,-4.68c23.843,0.827 50.625,1.03 80.4,0.96l1.393,0.003c29.216,0.06 55.536,-0.149 79.007,-0.963l-1.68,4.68l-5.4,-0l-1.08,2.64l-25.68,-0l-3.72,-2.76l-85.68,-0Zm-35.52,-12.96l-0.12,-1.08c0,-0 -0.552,0.017 -0.84,-0.24c-0.259,-0.231 -0.24,-0.48 -0.24,-0.48l-0.84,-0.12l-0.6,-2.4l-0.96,-0.24l-2.28,-6.48c20.258,2.695 49.523,3.807 84.24,3.96l0.813,-0.004c34.364,-0.166 63.567,-1.282 83.667,-3.956l-2.28,6.48l-0.96,0.24l-0.6,2.4l-1.08,0.12c0,-0 0.019,0.249 -0.24,0.48c-0.288,0.257 -0.84,0.24 -0.84,0.24l-0.12,1.08l-78.36,-0.12l-78.36,0.12Z" style="fill:#007b43;"/></svg>