<svg width="660" height="660" xmlns="http://www.w3.org/2000/svg" clip-rule="evenodd" xml:space="preserve" version="1.1">

 <g>
  <title>Layer 1</title>
  <g id="svg_1" transform="matrix(1, 0, 0, 1, 30, 30)">
   <path id="svg_2" fill="#b54734" d="m300,-30c-182.132,0 -330,147.868 -330,330c0,182.132 147.868,330 330,330c182.132,0 330,-147.868 330,-330c0,-182.132 -147.868,-330 -330,-330zm0,30c165.575,0 300,134.425 300,300c0,165.575 -134.425,300 -300,300c-165.575,0 -300,-134.425 -300,-300c0,-165.575 134.425,-300 300,-300z"/>
  </g>
  <g id="svg_3" transform="matrix(1, 0, 0, 1, 29.2, 30)">
   <path id="svg_4" fill-rule="nonzero" fill="#b54734" d="m551.8,399.7c-22.4,53.5 -67,80.2 -133.6,80.2c-12.2,0 -25.5,1.5 -39.7,4.6c-21.4,4.6 -32.1,11 -32.1,19.1c0,2.5 1.8,5.5 5.3,8.8c3.6,3.3 6.6,5 9.2,5c-12.7,0 -4.1,0.4 26,1.1c30.1,0.8 48.9,1.1 56.5,1.1c-44.3,26 -118.4,37.9 -222.3,35.9c-34.1,-0.5 -63.4,-15.5 -87.8,-45.1c-24,-28 -35.9,-59.3 -35.9,-93.9c0,-36.6 12.3,-67.8 37.1,-93.6c24.7,-25.7 55.4,-38.6 92,-38.6c8.1,0 19,1.8 32.5,5.3c13.5,3.6 22.5,5.3 27.1,5.3c18.8,0 42.3,-7.8 70.3,-23.3c28,-15.5 41.3,-23.3 39.7,-23.3c-5.1,53.5 -22.9,89.4 -53.5,107.7c-21.9,12.7 -32.8,25.2 -32.8,37.4c0,7.6 4.6,13.8 13.7,18.3c7.1,3.6 15,5.4 23.7,5.4c13.2,0 26.2,-8.1 39,-24.4c12.7,-16.3 18.3,-31.1 16.8,-44.3c-1.5,-15.3 -0.5,-33.6 3.1,-55c1,-6.1 4.7,-13.6 11.1,-22.5c6.4,-8.9 12.1,-14.4 17.2,-16.4c0,4.6 -1.6,12.2 -5,22.9c-3.3,10.7 -5,18.6 -5,23.7c0,11.2 3,19.9 9.2,26c9.2,-3.6 17.3,-15 24.4,-34.4c6.1,-14.8 9.7,-29 10.7,-42.8c-21.4,-1 -41.9,-10.7 -61.5,-29c-19.6,-18.3 -29.4,-38.2 -29.4,-59.6c0,-3.6 0.5,-7.1 1.5,-10.7c3,4.6 7.6,11.7 13.7,21.4c8.7,12.7 15.3,19.1 19.9,19.1c6.1,0 9.2,-6.4 9.2,-19.1c0,-16.3 -4.3,-31.1 -13,-44.3c-9.7,-15.8 -22.2,-23.7 -37.4,-23.7c-7.1,0 -17.8,3.8 -32.1,11.5c-14.3,7.6 -27.3,11.5 -39,11.5c-3.6,0 -19.4,-4.6 -47.4,-13.8c49.4,-8.1 74.1,-15.5 74.1,-22.1c0,-17.3 -33.9,-29 -101.6,-35.1c-6.6,-0.5 -18.8,-1.5 -36.7,-3.1c2,-2.5 16.5,-5.3 43.5,-8.4c22.9,-2.5 39,-3.8 48.1,-3.8c121.2,0 198.1,58.8 230.7,176.5c5.6,-4.6 8.4,-12.4 8.4,-23.2c0,-13.9 -4.1,-31.5 -12.2,-52.7c-3.1,-8.2 -7.9,-20.6 -14.5,-37.2c41.7,53.2 62.6,103.6 62.6,151.2c0,25.1 -5.9,47.8 -17.6,68.3c-7.6,13.8 -21.9,31.5 -42.8,53c-20.9,21.5 -35.1,38.1 -42.8,49.9c28,-7.6 46.4,-13.5 55,-17.6c19.3,-8.6 36.9,-21.6 52.7,-39c0,6.6 -2.8,16.6 -8.4,29.8m-332.9,-300.2c0,9.2 -5.1,15 -15.3,17.6l-19.9,3.1c-7.1,3.6 -17.6,17.6 -31.3,42c-1.5,-7.6 -3.8,-18.3 -6.9,-32.1c-4.6,0.5 -12.2,4.6 -22.9,12.2c-4.6,3.6 -12,8.9 -22.2,16c3.1,-18.3 13.2,-36.9 30.6,-55.8c18.3,-20.9 36.2,-31.3 53.5,-31.3c22.9,0 34.4,9.4 34.4,28.3m132.9,70.3c0,8.7 -4.7,15.9 -14.1,21.8c-9.4,5.9 -18.7,8.8 -27.9,8.8c-12.2,0 -23.2,-6.9 -32.8,-20.6c-11.7,-16.8 -23.7,-27.7 -35.9,-32.9c2.5,-2.5 5.6,-3.8 9.2,-3.8c4.6,0 12.3,3.6 23.3,10.7c10.9,7.1 17.9,10.7 21,10.7c2.5,0 6.7,-3.6 12.6,-10.7c5.9,-7.1 12.3,-10.7 19.5,-10.7c16.8,0 25.2,8.9 25.2,26.7"/>
  </g>
 </g>
</svg>