<svg width="660" height="660" xmlns="http://www.w3.org/2000/svg" clip-rule="evenodd" xml:space="preserve" version="1.1">

 <g>
  <title>Layer 1</title>
  <g id="svg_1" transform="matrix(1, 0, 0, 1, 30, 30)">
   <path id="svg_2" fill="#3066a0" d="m300,-30c-182.132,0 -330,147.868 -330,330c0,182.132 147.868,330 330,330c182.132,0 330,-147.868 330,-330c0,-182.132 -147.868,-330 -330,-330zm0,30c165.575,0 300,134.425 300,300c0,165.575 -134.425,300 -300,300c-165.575,0 -300,-134.425 -300,-300c0,-165.575 134.425,-300 300,-300z"/>
  </g>
  <g id="svg_3" transform="matrix(1, 0, 0, 1, -112.01, 156.79)">
   <path id="svg_4" fill-rule="nonzero" fill="#3066a0" d="m546.93,375.53c-28.722,29.23 -64.1,43.842 -106.13,43.842c-47.17,0 -84.59,-16.14 -112.27,-48.44c-26.15,-30.762 -39.22,-69.972 -39.22,-117.64c0,-51.26 22.302,-109.72 66.9,-175.34c36.38,-53.814 79.19,-100.98 128.41,-141.48c-7.182,32.814 -10.758,56.13 -10.758,69.972c0,31.794 9.984,62.802 29.976,93.05c24.612,35.88 43.31,62.56 56.14,79.968c19.992,30.26 29.988,59.73 29.988,88.42c0.001,42.558 -14.346,78.44 -43.04,107.65m-0.774,-164.17c-7.686,-17.17 -16.662,-28.572 -26.916,-34.22c1.536,3.084 2.31,7.44 2.31,13.08c0,10.77 -3.072,26.14 -9.234,46.13l-9.984,30.762c0,17.94 8.952,26.916 26.904,26.916c18.96,0 28.452,-12.57 28.452,-37.686c0,-12.804 -3.84,-27.792 -11.532,-44.988"/>
  </g>
 </g>
</svg>