<svg width="660" height="660" xmlns="http://www.w3.org/2000/svg" clip-rule="evenodd" xml:space="preserve" version="1.1">

 <g>
  <title>Layer 1</title>
  <g id="svg_1" transform="matrix(1, 0, 0, 1, 30, 30)">
   <path id="svg_2" fill="#46713f" d="m300,-30c-182.132,0 -330,147.868 -330,330c0,182.132 147.868,330 330,330c182.132,0 330,-147.868 330,-330c0,-182.132 -147.868,-330 -330,-330zm0,30c165.575,0 300,134.425 300,300c0,165.575 -134.425,300 -300,300c-165.575,0 -300,-134.425 -300,-300c0,-165.575 134.425,-300 300,-300z"/>
  </g>
  <g id="svg_3" transform="matrix(1, 0, 0, 1, 28.5, 28.5)">
   <path id="svg_4" fill-rule="nonzero" fill="#46713f" d="m562.6,337.4c0,10 -3.9,19 -11.6,27c-7.7,8 -16.6,12 -26.6,12c-16,0 -27.7,-7.5 -35.2,-22.5l-35.2,-1.5c-7.5,0 -22.3,3.3 -44.2,9.8c-23.5,6.5 -37,11.7 -40.5,15.7c-5.5,6 -10,20 -13.5,42c-3,18 -4.5,31.2 -4.5,39.7c0,13.5 2.1,23.4 6.4,29.6c4.3,6.2 13,11.5 26.2,15.7c13.2,4.2 21.4,6.6 24.4,7.1c2,0 5.2,-0.2 9.8,-0.7l9,0c6.5,0 13.2,1 20.2,3c10,3 14.3,7 12.8,12c-7,-1 -19.2,0.5 -36.7,4.5l21,10.5c0,6 -8.5,9 -25.5,9c-4.5,0 -10.6,-1 -18.4,-3c-7.7,-2 -12.9,-3 -15.4,-3l-9.7,0c-0.5,5 -2,12.5 -4.5,22.5c-8.5,-0.5 -18.5,-5.5 -30,-15c-11.5,-9.5 -18.7,-14.2 -21.7,-14.2c-3,0 -7.3,4.8 -12.7,14.2c-5.5,9.5 -8.2,16 -8.2,19.5c-6.5,-3.5 -12,-10 -16.5,-19.5c-2,-6.5 -4.2,-13 -6.7,-19.5c-5,0.5 -14.2,11 -27.7,31.5l-3.8,0c-1,-1.5 -4.8,-12 -11.2,-31.5c-15.5,-5 -30,-7.5 -43.5,-7.5c-6.5,0 -16.5,1.5 -30,4.5l-21,-1.5c3,-3 11.7,-8.7 26.2,-17.2c17,-10 30,-15 39,-15c1.5,0 3.5,0.3 6,0.8c2.5,0.5 4.5,0.8 6,0.8c3.5,0 9.1,-1.9 16.9,-5.6c7.7,-3.7 12.2,-7.1 13.5,-10.1c1.3,-3 1.9,-10.8 1.9,-23.2c0,-28.5 -7.5,-49.7 -22.5,-63.7c-13,-12.5 -34.5,-21.5 -64.5,-27c-8,28.5 -30.5,42.7 -67.4,42.7c-12,0 -24,-7.2 -36,-21.7c-12.3,-14.8 -18.3,-28 -18.3,-40c0,-18.5 7.7,-33.7 23.2,-45.7c-12.5,-13 -18.7,-26.2 -18.7,-39.7c0,-12.5 3.9,-23.5 11.6,-33c7.7,-9.5 17.9,-15 30.4,-16.5c-1,-16 4.2,-27 15.7,-33c-5.5,-5.5 -8.2,-15.2 -8.2,-29.2c0,-16.5 5.5,-30.2 16.5,-41.2c11,-11 24.7,-16.5 41.2,-16.5c18,0 32.7,6.3 44.2,18.8c14.5,-49.5 45.7,-74.2 93.7,-74.2c25,0 47,10 66,30c7,7.5 10.5,11.5 10.5,12c-6,0 -3,-1.1 9,-3.4c12,-2.2 20.7,-3.4 26.2,-3.4c19.5,0 36.7,7.2 51.7,21.7c13,13 22,29.5 27,49.5c3.5,0.5 9,2 16.5,4.5c11,5.5 16.5,15 16.5,28.5c0,2.5 -2,7.3 -6,14.2c32,18 48,43 48,75c0,9 -3.5,21.5 -10.5,37.5c13,7.5 19.5,18.5 19.5,33m-308.8,33l0,-9.7c0,-11.5 -5.6,-22 -16.9,-31.5c-11.2,-9.5 -22.6,-14.2 -34.1,-14.2c-14,0 -27,3.2 -39,9.7c26.5,-1.5 56.5,13.8 89.9,45.7m-13.5,-92.9c-7.5,-8.5 -14,-17.2 -19.5,-26.2c-21,5.5 -31.5,11.7 -31.5,18.7c6,-0.5 14.7,0.6 26.2,3.4c11.5,2.8 19.7,4.1 24.8,4.1m45.7,-23.2l0,-33c-12,-2 -19.3,-3 -21.7,-3l0,11.2l21.7,24.7m97.4,-21c-6,-2.5 -17.2,-7.5 -33.7,-15l0,64.5c23.5,-13.5 34.7,-30 33.7,-49.5m41.2,88.5l-16.5,-20.2c-10,7 -20.1,14.1 -30.4,21.4c-10.3,7.2 -19.1,15.4 -26.6,24.4c22.5,-12 47,-20.5 73.4,-25.5"/>
  </g>
 </g>
</svg>